<svg xmlns="http://www.w3.org/2000/svg" viewBox="0 0 200 200">
  <!-- Simple sunflower outline for testing -->
  <path id="center" d="M 100 90 Q 110 100 100 110 Q 90 100 100 90 Z" fill="none" stroke="black" stroke-width="2"/>
  <path id="petal1" d="M 100 80 Q 105 70 110 80 Q 115 90 110 100 Q 105 110 100 105 Q 95 110 90 100 Q 85 90 90 80 Q 95 70 100 80 Z" fill="none" stroke="black" stroke-width="2"/>
  <path id="petal2" d="M 120 100 Q 130 95 130 100 Q 130 105 120 110 Q 110 105 105 100 Q 110 95 120 100 Z" fill="none" stroke="black" stroke-width="2"/>
  <path id="petal3" d="M 100 120 Q 95 130 100 130 Q 105 130 100 120 Z" fill="none" stroke="black" stroke-width="2"/>
  <path id="petal4" d="M 80 100 Q 70 95 70 100 Q 70 105 80 110 Q 90 105 95 100 Q 90 95 80 100 Z" fill="none" stroke="black" stroke-width="2"/>
  <path id="stem" d="M 100 110 L 100 160 L 105 160 L 105 110 Z" fill="none" stroke="black" stroke-width="2"/>
</svg>

