<svg xmlns="http://www.w3.org/2000/svg" viewBox="0 0 200 200">
  <!-- Example tulip for testing -->
  <path id="petal1" d="M 100 60 Q 90 50 85 60 Q 80 70 85 80 Q 90 90 100 85 Q 110 90 115 80 Q 120 70 115 60 Q 110 50 100 60 Z" fill="none" stroke="black" stroke-width="2"/>
  <path id="petal2" d="M 100 60 Q 110 50 115 60 Q 120 70 115 80 Q 110 90 100 85 Q 90 90 85 80 Q 80 70 85 60 Q 90 50 100 60 Z" fill="none" stroke="black" stroke-width="2"/>
  <path id="center" d="M 100 70 Q 105 75 100 80 Q 95 75 100 70 Z" fill="none" stroke="black" stroke-width="2"/>
  <path id="stem" d="M 100 90 L 100 150 L 105 150 L 105 90 Z" fill="none" stroke="black" stroke-width="2"/>
  <path id="leaf1" d="M 100 110 Q 95 115 100 120 Q 105 115 100 110 Z" fill="none" stroke="black" stroke-width="2"/>
  <path id="leaf2" d="M 100 130 Q 105 135 100 140 Q 95 135 100 130 Z" fill="none" stroke="black" stroke-width="2"/>
</svg>

