<?xml version="1.0" encoding="UTF-8"?>
<svg width="800" height="800" viewBox="0 0 800 800" xmlns="http://www.w3.org/2000/svg">
<g id="fill-areas">
  <path id="area_layer8_shape0" d="M 540.0 400.0 Q 680.0 400.0 743.2748481411306 468.2816127056449 Q 658.6862691031603 507.15136106222513 529.3431345515801 453.57568053111254 Z" fill="white" stroke="black" stroke-width="2"/>
  <path id="area_layer8_shape1" d="M 529.3431345515801 453.57568053111254 Q 658.6862691031603 507.15136106222513 691.0143643058908 594.4495815568607 Q 597.9898987322333 597.9898987322333 498.99494936611666 498.99494936611666 Z" fill="white" stroke="black" stroke-width="2"/>
  <path id="area_layer8_shape2" d="M 498.99494936611666 498.99494936611666 Q 597.9898987322333 597.9898987322333 594.4495815568608 691.0143643058908 Q 507.15136106222513 658.6862691031603 453.5756805311126 529.3431345515801 Z" fill="white" stroke="black" stroke-width="2"/>
  <path id="area_layer8_shape3" d="M 453.5756805311126 529.3431345515801 Q 507.15136106222513 658.6862691031603 468.28161270564493 743.2748481411306 Q 400.0 680.0 400.0 540.0 Z" fill="white" stroke="black" stroke-width="2"/>
  <path id="area_layer8_shape4" d="M 400.0 540.0 Q 400.0 680.0 331.7183872943551 743.2748481411306 Q 292.84863893777487 658.6862691031603 346.42431946888746 529.3431345515801 Z" fill="white" stroke="black" stroke-width="2"/>
  <path id="area_layer8_shape5" d="M 346.42431946888746 529.3431345515801 Q 292.84863893777487 658.6862691031603 205.5504184431393 691.0143643058909 Q 202.01010126776671 597.9898987322333 301.00505063388334 498.99494936611666 Z" fill="white" stroke="black" stroke-width="2"/>
  <path id="area_layer8_shape6" d="M 301.00505063388334 498.99494936611666 Q 202.01010126776671 597.9898987322333 108.98563569410913 594.4495815568607 Q 141.31373089683973 507.1513610622252 270.65686544841986 453.5756805311126 Z" fill="white" stroke="black" stroke-width="2"/>
  <path id="area_layer8_shape7" d="M 270.65686544841986 453.5756805311126 Q 141.31373089683973 507.1513610622252 56.72515185886937 468.281612705645 Q 120.0 400.00000000000006 260.0 400.0 Z" fill="white" stroke="black" stroke-width="2"/>
  <path id="area_layer8_shape8" d="M 260.0 400.0 Q 120.0 400.00000000000006 56.72515185886937 331.71838729435507 Q 141.31373089683967 292.8486389377749 270.6568654484198 346.42431946888746 Z" fill="white" stroke="black" stroke-width="2"/>
  <path id="area_layer8_shape9" d="M 270.6568654484198 346.42431946888746 Q 141.31373089683967 292.8486389377749 108.98563569410908 205.5504184431393 Q 202.01010126776666 202.01010126776671 301.00505063388334 301.00505063388334 Z" fill="white" stroke="black" stroke-width="2"/>
  <path id="area_layer8_shape10" d="M 301.00505063388334 301.00505063388334 Q 202.01010126776666 202.01010126776671 205.55041844313925 108.98563569410919 Q 292.8486389377747 141.3137308968398 346.42431946888735 270.6568654484199 Z" fill="white" stroke="black" stroke-width="2"/>
  <path id="area_layer8_shape11" d="M 346.42431946888735 270.6568654484199 Q 292.8486389377747 141.3137308968398 331.71838729435495 56.72515185886937 Q 399.99999999999994 120.0 400.0 260.0 Z" fill="white" stroke="black" stroke-width="2"/>
  <path id="area_layer8_shape12" d="M 400.0 260.0 Q 399.99999999999994 120.0 468.2816127056449 56.72515185886937 Q 507.1513610622252 141.31373089683973 453.5756805311126 270.65686544841986 Z" fill="white" stroke="black" stroke-width="2"/>
  <path id="area_layer8_shape13" d="M 453.5756805311126 270.65686544841986 Q 507.1513610622252 141.31373089683973 594.449581556861 108.98563569410925 Q 597.9898987322334 202.01010126776683 498.9949493661167 301.0050506338834 Z" fill="white" stroke="black" stroke-width="2"/>
  <path id="area_layer8_shape14" d="M 498.99494936611666 301.00505063388334 Q 597.9898987322333 202.01010126776666 691.0143643058908 205.55041844313925 Q 658.6862691031602 292.8486389377747 529.3431345515801 346.42431946888735 Z" fill="white" stroke="black" stroke-width="2"/>
  <path id="area_layer8_shape15" d="M 529.3431345515801 346.42431946888735 Q 658.6862691031602 292.8486389377747 743.2748481411306 331.71838729435495 Q 680.0 399.99999999999994 540.0 399.99999999999994 Z" fill="white" stroke="black" stroke-width="2"/>
  <path id="area_layer7_shape0" d="M 522.5 400.0 Q 645.0 400.0 691.2610581153908 494.63645452732766 Q 598.2091636218621 544.0073868116559 499.10458181093105 472.00369340582796 Z" fill="white" stroke="black" stroke-width="2"/>
  <path id="area_layer7_shape1" d="M 499.10458181093105 472.00369340582796 Q 598.2091636218621 544.0073868116559 580.0092335145699 647.7614545273277 Q 475.7091636218621 633.0088464923126 437.85458181093105 516.5044232461563 Z" fill="white" stroke="black" stroke-width="2"/>
  <path id="area_layer7_shape2" d="M 437.85458181093105 516.5044232461563 Q 475.7091636218621 633.0088464923126 400.0 706.25 Q 324.2908363781379 633.0088464923126 362.14541818906895 516.5044232461563 Z" fill="white" stroke="black" stroke-width="2"/>
  <path id="area_layer7_shape3" d="M 362.14541818906895 516.5044232461563 Q 324.2908363781379 633.0088464923126 219.99076648543013 647.7614545273277 Q 201.7908363781379 544.0073868116559 300.89541818906895 472.00369340582796 Z" fill="white" stroke="black" stroke-width="2"/>
  <path id="area_layer7_shape4" d="M 300.89541818906895 472.00369340582796 Q 201.7908363781379 544.0073868116559 108.73894188460923 494.63645452732766 Q 155.0 400.00000000000006 277.5 400.0 Z" fill="white" stroke="black" stroke-width="2"/>
  <path id="area_layer7_shape5" d="M 277.5 400.0 Q 155.0 400.00000000000006 108.73894188460918 305.3635454726724 Q 201.79083637813787 255.9926131883441 300.89541818906895 327.99630659417204 Z" fill="white" stroke="black" stroke-width="2"/>
  <path id="area_layer7_shape6" d="M 300.89541818906895 327.99630659417204 Q 201.79083637813787 255.9926131883441 219.99076648543007 152.23854547267237 Q 324.29083637813784 166.9911535076874 362.14541818906895 283.4955767538437 Z" fill="white" stroke="black" stroke-width="2"/>
  <path id="area_layer7_shape7" d="M 362.14541818906895 283.4955767538437 Q 324.29083637813784 166.9911535076874 399.99999999999994 93.75 Q 475.7091636218621 166.99115350768736 437.85458181093105 283.4955767538437 Z" fill="white" stroke="black" stroke-width="2"/>
  <path id="area_layer7_shape8" d="M 437.85458181093105 283.4955767538437 Q 475.7091636218621 166.99115350768736 580.0092335145698 152.2385454726723 Q 598.2091636218621 255.99261318834402 499.10458181093105 327.996306594172 Z" fill="white" stroke="black" stroke-width="2"/>
  <path id="area_layer7_shape9" d="M 499.10458181093105 327.996306594172 Q 598.2091636218621 255.99261318834402 691.2610581153908 305.3635454726723 Q 645.0 399.99999999999994 522.5 399.99999999999994 Z" fill="white" stroke="black" stroke-width="2"/>
  <path id="area_layer6_shape0" d="M 505.0 400.0 Q 610.0 400.0 657.4561361058479 451.21120952923366 Q 594.0147018273702 480.36352079666887 497.0073509136851 440.1817603983344 Z" fill="white" stroke="black" stroke-width="2"/>
  <path id="area_layer6_shape1" d="M 497.0073509136851 440.1817603983344 Q 594.0147018273702 480.36352079666887 618.2607732294182 545.8371861676455 Q 548.492424049175 548.4924240491749 474.2462120245875 474.24621202458746 Z" fill="white" stroke="black" stroke-width="2"/>
  <path id="area_layer6_shape2" d="M 474.2462120245875 474.24621202458746 Q 548.492424049175 548.4924240491749 545.8371861676455 618.2607732294182 Q 480.36352079666887 594.0147018273702 440.1817603983344 497.0073509136851 Z" fill="white" stroke="black" stroke-width="2"/>
  <path id="area_layer6_shape3" d="M 440.1817603983344 497.0073509136851 Q 480.36352079666887 594.0147018273702 451.21120952923366 657.4561361058479 Q 400.0 610.0 400.0 505.0 Z" fill="white" stroke="black" stroke-width="2"/>
  <path id="area_layer6_shape4" d="M 400.0 505.0 Q 400.0 610.0 348.78879047076634 657.4561361058479 Q 319.6364792033312 594.0147018273702 359.8182396016656 497.0073509136851 Z" fill="white" stroke="black" stroke-width="2"/>
  <path id="area_layer6_shape5" d="M 359.8182396016656 497.0073509136851 Q 319.6364792033312 594.0147018273702 254.1628138323545 618.2607732294182 Q 251.50757595082504 548.492424049175 325.75378797541254 474.2462120245875 Z" fill="white" stroke="black" stroke-width="2"/>
  <path id="area_layer6_shape6" d="M 325.75378797541254 474.2462120245875 Q 251.50757595082504 548.492424049175 181.73922677058184 545.8371861676455 Q 205.9852981726298 480.36352079666887 302.9926490863149 440.18176039833446 Z" fill="white" stroke="black" stroke-width="2"/>
  <path id="area_layer6_shape7" d="M 302.9926490863149 440.18176039833446 Q 205.9852981726298 480.36352079666887 142.54386389415203 451.21120952923377 Q 190.0 400.0 295.0 400.0 Z" fill="white" stroke="black" stroke-width="2"/>
  <path id="area_layer6_shape8" d="M 295.0 400.0 Q 190.0 400.0 142.54386389415203 348.7887904707663 Q 205.98529817262977 319.6364792033312 302.9926490863149 359.8182396016656 Z" fill="white" stroke="black" stroke-width="2"/>
  <path id="area_layer6_shape9" d="M 302.9926490863149 359.8182396016656 Q 205.98529817262977 319.6364792033312 181.7392267705818 254.1628138323545 Q 251.507575950825 251.50757595082504 325.7537879754125 325.75378797541254 Z" fill="white" stroke="black" stroke-width="2"/>
  <path id="area_layer6_shape10" d="M 325.7537879754125 325.75378797541254 Q 251.507575950825 251.50757595082504 254.16281383235443 181.73922677058187 Q 319.636479203331 205.98529817262983 359.81823960166554 302.99264908631494 Z" fill="white" stroke="black" stroke-width="2"/>
  <path id="area_layer6_shape11" d="M 359.81823960166554 302.99264908631494 Q 319.636479203331 205.98529817262983 348.78879047076623 142.54386389415203 Q 399.99999999999994 190.0 400.0 295.0 Z" fill="white" stroke="black" stroke-width="2"/>
  <path id="area_layer6_shape12" d="M 400.0 295.0 Q 399.99999999999994 190.0 451.21120952923366 142.54386389415203 Q 480.3635207966689 205.9852981726298 440.18176039833446 302.9926490863149 Z" fill="white" stroke="black" stroke-width="2"/>
  <path id="area_layer6_shape13" d="M 440.18176039833446 302.9926490863149 Q 480.3635207966689 205.9852981726298 545.8371861676457 181.73922677058192 Q 548.492424049175 251.50757595082513 474.2462120245875 325.7537879754126 Z" fill="white" stroke="black" stroke-width="2"/>
  <path id="area_layer6_shape14" d="M 474.24621202458746 325.7537879754125 Q 548.4924240491749 251.507575950825 618.2607732294182 254.16281383235443 Q 594.0147018273701 319.636479203331 497.00735091368506 359.8182396016655 Z" fill="white" stroke="black" stroke-width="2"/>
  <path id="area_layer6_shape15" d="M 497.00735091368506 359.8182396016655 Q 594.0147018273701 319.636479203331 657.4561361058479 348.78879047076623 Q 610.0 399.99999999999994 505.0 400.0 Z" fill="white" stroke="black" stroke-width="2"/>
  <path id="area_layer5_shape0" d="M 487.5 400.0 Q 575.0 400.0 608.0436129395648 467.59746751951974 Q 541.5779740156158 502.8624191511828 470.7889870078079 451.4312095755914 Z" fill="white" stroke="black" stroke-width="2"/>
  <path id="area_layer5_shape1" d="M 470.7889870078079 451.4312095755914 Q 541.5779740156158 502.8624191511828 528.5780239389785 576.9724675195198 Q 454.0779740156158 566.4348903516518 427.0389870078079 483.2174451758259 Z" fill="white" stroke="black" stroke-width="2"/>
  <path id="area_layer5_shape2" d="M 427.0389870078079 483.2174451758259 Q 454.0779740156158 566.4348903516518 400.0 618.75 Q 345.9220259843842 566.4348903516519 372.9610129921921 483.21744517582596 Z" fill="white" stroke="black" stroke-width="2"/>
  <path id="area_layer5_shape3" d="M 372.9610129921921 483.21744517582596 Q 345.9220259843842 566.4348903516519 271.4219760610215 576.9724675195198 Q 258.4220259843842 502.86241915118285 329.2110129921921 451.4312095755914 Z" fill="white" stroke="black" stroke-width="2"/>
  <path id="area_layer5_shape4" d="M 329.2110129921921 451.4312095755914 Q 258.4220259843842 502.86241915118285 191.95638706043516 467.5974675195198 Q 225.0 400.0 312.5 400.0 Z" fill="white" stroke="black" stroke-width="2"/>
  <path id="area_layer5_shape5" d="M 312.5 400.0 Q 225.0 400.0 191.95638706043513 332.40253248048026 Q 258.42202598438416 297.1375808488172 329.2110129921921 348.56879042440863 Z" fill="white" stroke="black" stroke-width="2"/>
  <path id="area_layer5_shape6" d="M 329.2110129921921 348.56879042440863 Q 258.42202598438416 297.1375808488172 271.4219760610215 223.02753248048026 Q 345.92202598438416 233.56510964834814 372.9610129921921 316.7825548241741 Z" fill="white" stroke="black" stroke-width="2"/>
  <path id="area_layer5_shape7" d="M 372.9610129921921 316.7825548241741 Q 345.92202598438416 233.56510964834814 399.99999999999994 181.25 Q 454.0779740156158 233.5651096483481 427.03898700780786 316.78255482417404 Z" fill="white" stroke="black" stroke-width="2"/>
  <path id="area_layer5_shape8" d="M 427.03898700780786 316.78255482417404 Q 454.0779740156158 233.5651096483481 528.5780239389785 223.02753248048023 Q 541.5779740156158 297.13758084881715 470.7889870078079 348.5687904244086 Z" fill="white" stroke="black" stroke-width="2"/>
  <path id="area_layer5_shape9" d="M 470.7889870078079 348.5687904244086 Q 541.5779740156158 297.13758084881715 608.0436129395648 332.4025324804802 Q 575.0 399.99999999999994 487.5 400.0 Z" fill="white" stroke="black" stroke-width="2"/>
  <path id="area_layer4_shape0" d="M 470.0 400.0 Q 540.0 400.0 571.6374240705653 434.14080635282244 Q 529.3431345515801 453.57568053111254 464.67156727579004 426.78784026555627 Z" fill="white" stroke="black" stroke-width="2"/>
  <path id="area_layer4_shape1" d="M 464.67156727579004 426.78784026555627 Q 529.3431345515801 453.57568053111254 545.5071821529455 497.22479077843036 Q 498.99494936611666 498.99494936611666 449.49747468305833 449.49747468305833 Z" fill="white" stroke="black" stroke-width="2"/>
  <path id="area_layer4_shape2" d="M 449.49747468305833 449.49747468305833 Q 498.99494936611666 498.99494936611666 497.2247907784304 545.5071821529455 Q 453.5756805311126 529.3431345515801 426.78784026555627 464.67156727579004 Z" fill="white" stroke="black" stroke-width="2"/>
  <path id="area_layer4_shape3" d="M 426.78784026555627 464.67156727579004 Q 453.5756805311126 529.3431345515801 434.14080635282244 571.6374240705653 Q 400.0 540.0 400.0 470.0 Z" fill="white" stroke="black" stroke-width="2"/>
  <path id="area_layer4_shape4" d="M 400.0 470.0 Q 400.0 540.0 365.85919364717756 571.6374240705653 Q 346.42431946888746 529.3431345515801 373.21215973444373 464.67156727579004 Z" fill="white" stroke="black" stroke-width="2"/>
  <path id="area_layer4_shape5" d="M 373.21215973444373 464.67156727579004 Q 346.42431946888746 529.3431345515801 302.77520922156964 545.5071821529455 Q 301.00505063388334 498.99494936611666 350.50252531694167 449.49747468305833 Z" fill="white" stroke="black" stroke-width="2"/>
  <path id="area_layer4_shape6" d="M 350.50252531694167 449.49747468305833 Q 301.00505063388334 498.99494936611666 254.49281784705457 497.22479077843036 Q 270.65686544841986 453.5756805311126 335.32843272420996 426.78784026555627 Z" fill="white" stroke="black" stroke-width="2"/>
  <path id="area_layer4_shape7" d="M 335.32843272420996 426.78784026555627 Q 270.65686544841986 453.5756805311126 228.36257592943468 434.1408063528225 Q 260.0 400.0 330.0 400.0 Z" fill="white" stroke="black" stroke-width="2"/>
  <path id="area_layer4_shape8" d="M 330.0 400.0 Q 260.0 400.0 228.36257592943468 365.85919364717756 Q 270.6568654484198 346.42431946888746 335.3284327242099 373.21215973444373 Z" fill="white" stroke="black" stroke-width="2"/>
  <path id="area_layer4_shape9" d="M 335.3284327242099 373.21215973444373 Q 270.6568654484198 346.42431946888746 254.49281784705454 302.77520922156964 Q 301.00505063388334 301.00505063388334 350.50252531694167 350.50252531694167 Z" fill="white" stroke="black" stroke-width="2"/>
  <path id="area_layer4_shape10" d="M 350.50252531694167 350.50252531694167 Q 301.00505063388334 301.00505063388334 302.77520922156964 254.4928178470546 Q 346.42431946888735 270.6568654484199 373.2121597344437 335.32843272420996 Z" fill="white" stroke="black" stroke-width="2"/>
  <path id="area_layer4_shape11" d="M 373.2121597344437 335.32843272420996 Q 346.42431946888735 270.6568654484199 365.8591936471775 228.36257592943468 Q 400.0 260.0 400.0 330.0 Z" fill="white" stroke="black" stroke-width="2"/>
  <path id="area_layer4_shape12" d="M 400.0 330.0 Q 400.0 260.0 434.14080635282244 228.36257592943468 Q 453.5756805311126 270.65686544841986 426.7878402655563 335.32843272420996 Z" fill="white" stroke="black" stroke-width="2"/>
  <path id="area_layer4_shape13" d="M 426.7878402655563 335.32843272420996 Q 453.5756805311126 270.65686544841986 497.2247907784305 254.49281784705462 Q 498.9949493661167 301.0050506338834 449.4974746830584 350.5025253169417 Z" fill="white" stroke="black" stroke-width="2"/>
  <path id="area_layer4_shape14" d="M 449.49747468305833 350.50252531694167 Q 498.99494936611666 301.00505063388334 545.5071821529455 302.77520922156964 Q 529.3431345515801 346.42431946888735 464.67156727579004 373.2121597344437 Z" fill="white" stroke="black" stroke-width="2"/>
  <path id="area_layer4_shape15" d="M 464.67156727579004 373.2121597344437 Q 529.3431345515801 346.42431946888735 571.6374240705653 365.85919364717745 Q 540.0 399.99999999999994 470.0 400.0 Z" fill="white" stroke="black" stroke-width="2"/>
  <path id="area_layer3_shape0" d="M 452.5 400.0 Q 505.0 400.0 524.8261677637389 440.5584805117119 Q 484.94678440936946 461.71745149070966 442.4733922046847 430.85872574535483 Z" fill="white" stroke="black" stroke-width="2"/>
  <path id="area_layer3_shape1" d="M 442.4733922046847 430.85872574535483 Q 484.94678440936946 461.71745149070966 477.1468143633871 506.1834805117119 Q 432.44678440936946 499.8609342109911 416.2233922046847 449.93046710549555 Z" fill="white" stroke="black" stroke-width="2"/>
  <path id="area_layer3_shape2" d="M 416.2233922046847 449.93046710549555 Q 432.44678440936946 499.8609342109911 400.0 531.25 Q 367.55321559063054 499.8609342109911 383.7766077953153 449.93046710549555 Z" fill="white" stroke="black" stroke-width="2"/>
  <path id="area_layer3_shape3" d="M 383.7766077953153 449.93046710549555 Q 367.55321559063054 499.8609342109911 322.8531856366129 506.1834805117119 Q 315.05321559063054 461.71745149070966 357.5266077953153 430.85872574535483 Z" fill="white" stroke="black" stroke-width="2"/>
  <path id="area_layer3_shape4" d="M 357.5266077953153 430.85872574535483 Q 315.05321559063054 461.71745149070966 275.1738322362611 440.5584805117119 Q 295.0 400.0 347.5 400.0 Z" fill="white" stroke="black" stroke-width="2"/>
  <path id="area_layer3_shape5" d="M 347.5 400.0 Q 295.0 400.0 275.1738322362611 359.4415194882882 Q 315.05321559063054 338.28254850929034 357.5266077953153 369.14127425464517 Z" fill="white" stroke="black" stroke-width="2"/>
  <path id="area_layer3_shape6" d="M 357.5266077953153 369.14127425464517 Q 315.05321559063054 338.28254850929034 322.8531856366129 293.8165194882882 Q 367.5532155906305 300.1390657890089 383.7766077953153 350.06953289450445 Z" fill="white" stroke="black" stroke-width="2"/>
  <path id="area_layer3_shape7" d="M 383.7766077953153 350.06953289450445 Q 367.5532155906305 300.1390657890089 400.0 268.75 Q 432.44678440936946 300.1390657890089 416.2233922046847 350.06953289450445 Z" fill="white" stroke="black" stroke-width="2"/>
  <path id="area_layer3_shape8" d="M 416.2233922046847 350.06953289450445 Q 432.44678440936946 300.1390657890089 477.1468143633871 293.8165194882881 Q 484.94678440936946 338.2825485092903 442.4733922046847 369.14127425464517 Z" fill="white" stroke="black" stroke-width="2"/>
  <path id="area_layer3_shape9" d="M 442.4733922046847 369.14127425464517 Q 484.94678440936946 338.2825485092903 524.8261677637389 359.4415194882881 Q 505.0 400.0 452.5 400.0 Z" fill="white" stroke="black" stroke-width="2"/>
  <path id="area_layer2_shape0" d="M 435.0 400.0 Q 470.0 400.0 485.81871203528266 417.0704031764112 Q 464.67156727579004 426.78784026555627 432.335783637895 413.39392013277813 Z" fill="white" stroke="black" stroke-width="2"/>
  <path id="area_layer2_shape1" d="M 432.335783637895 413.39392013277813 Q 464.67156727579004 426.78784026555627 472.75359107647273 448.6123953892152 Q 449.49747468305833 449.49747468305833 424.74873734152914 424.74873734152914 Z" fill="white" stroke="black" stroke-width="2"/>
  <path id="area_layer2_shape2" d="M 424.74873734152914 424.74873734152914 Q 449.49747468305833 449.49747468305833 448.6123953892152 472.75359107647273 Q 426.78784026555627 464.67156727579004 413.39392013277813 432.335783637895 Z" fill="white" stroke="black" stroke-width="2"/>
  <path id="area_layer2_shape3" d="M 413.39392013277813 432.335783637895 Q 426.78784026555627 464.67156727579004 417.0704031764112 485.81871203528266 Q 400.0 470.0 400.0 435.0 Z" fill="white" stroke="black" stroke-width="2"/>
  <path id="area_layer2_shape4" d="M 400.0 435.0 Q 400.0 470.0 382.9295968235888 485.81871203528266 Q 373.21215973444373 464.67156727579004 386.60607986722187 432.335783637895 Z" fill="white" stroke="black" stroke-width="2"/>
  <path id="area_layer2_shape5" d="M 386.60607986722187 432.335783637895 Q 373.21215973444373 464.67156727579004 351.3876046107848 472.75359107647273 Q 350.50252531694167 449.49747468305833 375.25126265847086 424.74873734152914 Z" fill="white" stroke="black" stroke-width="2"/>
  <path id="area_layer2_shape6" d="M 375.25126265847086 424.74873734152914 Q 350.50252531694167 449.49747468305833 327.24640892352727 448.6123953892152 Q 335.32843272420996 426.78784026555627 367.664216362105 413.39392013277813 Z" fill="white" stroke="black" stroke-width="2"/>
  <path id="area_layer2_shape7" d="M 367.664216362105 413.39392013277813 Q 335.32843272420996 426.78784026555627 314.18128796471734 417.0704031764113 Q 330.0 400.0 365.0 400.0 Z" fill="white" stroke="black" stroke-width="2"/>
  <path id="area_layer2_shape8" d="M 365.0 400.0 Q 330.0 400.0 314.18128796471734 382.9295968235888 Q 335.3284327242099 373.21215973444373 367.664216362105 386.60607986722187 Z" fill="white" stroke="black" stroke-width="2"/>
  <path id="area_layer2_shape9" d="M 367.664216362105 386.60607986722187 Q 335.3284327242099 373.21215973444373 327.24640892352727 351.3876046107848 Q 350.50252531694167 350.50252531694167 375.2512626584708 375.25126265847086 Z" fill="white" stroke="black" stroke-width="2"/>
  <path id="area_layer2_shape10" d="M 375.2512626584708 375.25126265847086 Q 350.50252531694167 350.50252531694167 351.3876046107848 327.24640892352727 Q 373.2121597344437 335.32843272420996 386.60607986722187 367.664216362105 Z" fill="white" stroke="black" stroke-width="2"/>
  <path id="area_layer2_shape11" d="M 386.60607986722187 367.664216362105 Q 373.2121597344437 335.32843272420996 382.9295968235887 314.18128796471734 Q 400.0 330.0 400.0 365.0 Z" fill="white" stroke="black" stroke-width="2"/>
  <path id="area_layer2_shape12" d="M 400.0 365.0 Q 400.0 330.0 417.0704031764112 314.18128796471734 Q 426.7878402655563 335.32843272420996 413.39392013277813 367.664216362105 Z" fill="white" stroke="black" stroke-width="2"/>
  <path id="area_layer2_shape13" d="M 413.39392013277813 367.664216362105 Q 426.7878402655563 335.32843272420996 448.61239538921524 327.2464089235273 Q 449.4974746830584 350.5025253169417 424.7487373415292 375.25126265847086 Z" fill="white" stroke="black" stroke-width="2"/>
  <path id="area_layer2_shape14" d="M 424.74873734152914 375.2512626584708 Q 449.49747468305833 350.50252531694167 472.75359107647273 351.3876046107848 Q 464.67156727579004 373.2121597344437 432.335783637895 386.60607986722187 Z" fill="white" stroke="black" stroke-width="2"/>
  <path id="area_layer2_shape15" d="M 432.335783637895 386.60607986722187 Q 464.67156727579004 373.2121597344437 485.81871203528266 382.9295968235887 Q 470.0 400.0 435.0 400.0 Z" fill="white" stroke="black" stroke-width="2"/>
  <path id="area_layer1_shape0" d="M 417.5 400.0 Q 435.0 400.0 441.60872258791295 413.51949350390396 Q 428.3155948031232 420.57248383023654 414.1577974015616 410.2862419151183 Z" fill="white" stroke="black" stroke-width="2"/>
  <path id="area_layer1_shape1" d="M 414.1577974015616 410.2862419151183 Q 428.3155948031232 420.57248383023654 425.7156047877957 435.39449350390396 Q 410.8155948031232 433.28697807033035 405.4077974015616 416.6434890351652 Z" fill="white" stroke="black" stroke-width="2"/>
  <path id="area_layer1_shape2" d="M 405.4077974015616 416.6434890351652 Q 410.8155948031232 433.28697807033035 400.0 443.75 Q 389.18440519687687 433.2869780703304 394.5922025984384 416.6434890351652 Z" fill="white" stroke="black" stroke-width="2"/>
  <path id="area_layer1_shape3" d="M 394.5922025984384 416.6434890351652 Q 389.18440519687687 433.2869780703304 374.2843952122043 435.39449350390396 Q 371.68440519687687 420.5724838302366 385.8422025984384 410.2862419151183 Z" fill="white" stroke="black" stroke-width="2"/>
  <path id="area_layer1_shape4" d="M 385.8422025984384 410.2862419151183 Q 371.68440519687687 420.5724838302366 358.39127741208705 413.51949350390396 Q 365.0 400.0 382.5 400.0 Z" fill="white" stroke="black" stroke-width="2"/>
  <path id="area_layer1_shape5" d="M 382.5 400.0 Q 365.0 400.0 358.39127741208705 386.48050649609604 Q 371.6844051968768 379.42751616976346 385.8422025984384 389.7137580848817 Z" fill="white" stroke="black" stroke-width="2"/>
  <path id="area_layer1_shape6" d="M 385.8422025984384 389.7137580848817 Q 371.6844051968768 379.42751616976346 374.2843952122043 364.60550649609604 Q 389.1844051968768 366.71302192966965 394.5922025984384 383.3565109648348 Z" fill="white" stroke="black" stroke-width="2"/>
  <path id="area_layer1_shape7" d="M 394.5922025984384 383.3565109648348 Q 389.1844051968768 366.71302192966965 400.0 356.25 Q 410.81559480312313 366.7130219296696 405.4077974015616 383.3565109648348 Z" fill="white" stroke="black" stroke-width="2"/>
  <path id="area_layer1_shape8" d="M 405.4077974015616 383.3565109648348 Q 410.81559480312313 366.7130219296696 425.7156047877957 364.60550649609604 Q 428.31559480312313 379.4275161697634 414.1577974015616 389.7137580848817 Z" fill="white" stroke="black" stroke-width="2"/>
  <path id="area_layer1_shape9" d="M 414.1577974015616 389.7137580848817 Q 428.31559480312313 379.4275161697634 441.60872258791295 386.48050649609604 Q 435.0 400.0 417.5 400.0 Z" fill="white" stroke="black" stroke-width="2"/>
  <path id="area_center" d="M 400.0 380.0 A 20 20 0 1 0 400.0 420.0 A 20 20 0 1 0 400.0 380.0 Z" fill="white" stroke="black" stroke-width="2"/>
</g>
</svg>
