<?xml version="1.0" encoding="UTF-8"?>
<svg width="800" height="800" viewBox="0 0 800 800" xmlns="http://www.w3.org/2000/svg">
<g id="fill-areas">
  <path id="area_layer12_shape0" d="M 540.0 400.0 Q 680.0 400.0 745.6909192082983 454.7520627640808 Q 666.295824562643 486.5247584249853 533.1479122813215 443.26237921249265 Z" fill="white" stroke="black" stroke-width="2"/>
  <path id="area_layer12_shape1" d="M 533.1479122813215 443.26237921249265 Q 666.295824562643 486.5247584249853 711.8522834659288 558.8966749088414 Q 626.5247584249853 564.5798706418925 513.2623792124926 482.28993532094626 Z" fill="white" stroke="black" stroke-width="2"/>
  <path id="area_layer12_shape2" d="M 513.2623792124926 482.28993532094626 Q 626.5247584249853 564.5798706418925 647.4873734152916 647.4873734152916 Q 564.5798706418925 626.5247584249853 482.28993532094626 513.2623792124926 Z" fill="white" stroke="black" stroke-width="2"/>
  <path id="area_layer12_shape3" d="M 482.28993532094626 513.2623792124926 Q 564.5798706418925 626.5247584249853 558.8966749088414 711.8522834659288 Q 486.5247584249853 666.295824562643 443.26237921249265 533.1479122813215 Z" fill="white" stroke="black" stroke-width="2"/>
  <path id="area_layer12_shape4" d="M 443.26237921249265 533.1479122813215 Q 486.5247584249853 666.295824562643 454.75206276408085 745.6909192082983 Q 400.0 680.0 400.0 540.0 Z" fill="white" stroke="black" stroke-width="2"/>
  <path id="area_layer12_shape5" d="M 400.0 540.0 Q 400.0 680.0 345.2479372359192 745.6909192082983 Q 313.47524157501476 666.295824562643 356.73762078750735 533.1479122813215 Z" fill="white" stroke="black" stroke-width="2"/>
  <path id="area_layer12_shape6" d="M 356.73762078750735 533.1479122813215 Q 313.47524157501476 666.295824562643 241.10332509115864 711.8522834659288 Q 235.42012935810754 626.5247584249853 317.71006467905374 513.2623792124926 Z" fill="white" stroke="black" stroke-width="2"/>
  <path id="area_layer12_shape7" d="M 317.71006467905374 513.2623792124926 Q 235.42012935810754 626.5247584249853 152.51262658470839 647.4873734152916 Q 173.47524157501473 564.5798706418925 286.73762078750735 482.28993532094626 Z" fill="white" stroke="black" stroke-width="2"/>
  <path id="area_layer12_shape8" d="M 286.73762078750735 482.28993532094626 Q 173.47524157501473 564.5798706418925 88.14771653407126 558.8966749088414 Q 133.70417543735704 486.5247584249853 266.8520877186785 443.26237921249265 Z" fill="white" stroke="black" stroke-width="2"/>
  <path id="area_layer12_shape9" d="M 266.8520877186785 443.26237921249265 Q 133.70417543735704 486.5247584249853 54.30908079170183 454.75206276408085 Q 120.0 400.00000000000006 260.0 400.0 Z" fill="white" stroke="black" stroke-width="2"/>
  <path id="area_layer12_shape10" d="M 260.0 400.0 Q 120.0 400.00000000000006 54.309080791701774 345.24793723591927 Q 133.70417543735698 313.47524157501476 266.8520877186785 356.73762078750735 Z" fill="white" stroke="black" stroke-width="2"/>
  <path id="area_layer12_shape11" d="M 266.8520877186785 356.73762078750735 Q 133.70417543735698 313.47524157501476 88.14771653407121 241.10332509115867 Q 173.4752415750147 235.42012935810754 286.73762078750735 317.71006467905374 Z" fill="white" stroke="black" stroke-width="2"/>
  <path id="area_layer12_shape12" d="M 286.73762078750735 317.71006467905374 Q 173.4752415750147 235.42012935810754 152.5126265847083 152.51262658470839 Q 235.4201293581075 173.47524157501473 317.71006467905374 286.73762078750735 Z" fill="white" stroke="black" stroke-width="2"/>
  <path id="area_layer12_shape13" d="M 317.71006467905374 286.73762078750735 Q 235.4201293581075 173.47524157501473 241.10332509115855 88.14771653407126 Q 313.4752415750147 133.70417543735704 356.73762078750735 266.8520877186785 Z" fill="white" stroke="black" stroke-width="2"/>
  <path id="area_layer12_shape14" d="M 356.73762078750735 266.8520877186785 Q 313.4752415750147 133.70417543735704 345.24793723591915 54.30908079170183 Q 399.99999999999994 120.0 400.0 260.0 Z" fill="white" stroke="black" stroke-width="2"/>
  <path id="area_layer12_shape15" d="M 400.0 260.0 Q 399.99999999999994 120.0 454.75206276408073 54.309080791701774 Q 486.52475842498524 133.70417543735698 443.2623792124926 266.8520877186785 Z" fill="white" stroke="black" stroke-width="2"/>
  <path id="area_layer12_shape16" d="M 443.2623792124926 266.8520877186785 Q 486.52475842498524 133.70417543735698 558.8966749088413 88.14771653407121 Q 564.5798706418924 173.47524157501468 482.2899353209462 286.73762078750735 Z" fill="white" stroke="black" stroke-width="2"/>
  <path id="area_layer12_shape17" d="M 482.2899353209462 286.73762078750735 Q 564.5798706418924 173.47524157501468 647.4873734152916 152.5126265847083 Q 626.5247584249853 235.42012935810746 513.2623792124926 317.71006467905374 Z" fill="white" stroke="black" stroke-width="2"/>
  <path id="area_layer12_shape18" d="M 513.2623792124926 317.71006467905374 Q 626.5247584249853 235.42012935810746 711.8522834659287 241.10332509115855 Q 666.295824562643 313.47524157501465 533.1479122813215 356.73762078750735 Z" fill="white" stroke="black" stroke-width="2"/>
  <path id="area_layer12_shape19" d="M 533.1479122813215 356.73762078750735 Q 666.295824562643 313.47524157501465 745.6909192082982 345.2479372359191 Q 680.0 399.99999999999994 540.0 399.99999999999994 Z" fill="white" stroke="black" stroke-width="2"/>
  <path id="area_layer11_shape0" d="M 528.3333333333334 400.0 Q 656.6666666666667 400.0 709.9012026010762 483.0377769703921 Q 622.279853638006 528.3333333333333 511.139926819003 464.16666666666663 Z" fill="white" stroke="black" stroke-width="2"/>
  <path id="area_layer11_shape1" d="M 511.139926819003 464.16666666666663 Q 622.279853638006 528.3333333333333 626.8634256306841 626.863425630684 Q 528.3333333333334 622.279853638006 464.1666666666667 511.139926819003 Z" fill="white" stroke="black" stroke-width="2"/>
  <path id="area_layer11_shape2" d="M 464.1666666666667 511.139926819003 Q 528.3333333333334 622.279853638006 483.03777697039214 709.9012026010761 Q 400.0 656.6666666666667 400.0 528.3333333333334 Z" fill="white" stroke="black" stroke-width="2"/>
  <path id="area_layer11_shape3" d="M 400.0 528.3333333333334 Q 400.0 656.6666666666667 316.96222302960797 709.9012026010762 Q 271.66666666666674 622.279853638006 335.83333333333337 511.139926819003 Z" fill="white" stroke="black" stroke-width="2"/>
  <path id="area_layer11_shape4" d="M 335.83333333333337 511.139926819003 Q 271.66666666666674 622.279853638006 173.136574369316 626.8634256306841 Q 177.7201463619941 528.3333333333335 288.86007318099706 464.16666666666674 Z" fill="white" stroke="black" stroke-width="2"/>
  <path id="area_layer11_shape5" d="M 288.86007318099706 464.16666666666674 Q 177.7201463619941 528.3333333333335 90.09879739892392 483.0377769703922 Q 143.33333333333331 400.00000000000017 271.66666666666663 400.00000000000006 Z" fill="white" stroke="black" stroke-width="2"/>
  <path id="area_layer11_shape6" d="M 271.66666666666663 400.0 Q 143.33333333333331 400.00000000000006 90.09879739892386 316.9622230296079 Q 177.720146361994 271.66666666666674 288.860073180997 335.83333333333337 Z" fill="white" stroke="black" stroke-width="2"/>
  <path id="area_layer11_shape7" d="M 288.860073180997 335.83333333333337 Q 177.720146361994 271.66666666666674 173.13657436931592 173.136574369316 Q 271.6666666666665 177.72014636199413 335.83333333333326 288.86007318099706 Z" fill="white" stroke="black" stroke-width="2"/>
  <path id="area_layer11_shape8" d="M 335.83333333333326 288.86007318099706 Q 271.6666666666665 177.72014636199413 316.9622230296077 90.09879739892398 Q 399.99999999999994 143.33333333333331 400.0 271.66666666666663 Z" fill="white" stroke="black" stroke-width="2"/>
  <path id="area_layer11_shape9" d="M 400.0 271.66666666666663 Q 399.99999999999994 143.33333333333331 483.0377769703919 90.09879739892386 Q 528.3333333333334 177.72014636199407 464.1666666666667 288.860073180997 Z" fill="white" stroke="black" stroke-width="2"/>
  <path id="area_layer11_shape10" d="M 464.1666666666666 288.860073180997 Q 528.3333333333331 177.72014636199395 626.8634256306838 173.13657436931572 Q 622.2798536380059 271.6666666666665 511.13992681900294 335.83333333333326 Z" fill="white" stroke="black" stroke-width="2"/>
  <path id="area_layer11_shape11" d="M 511.13992681900294 335.83333333333326 Q 622.2798536380059 271.6666666666665 709.901202601076 316.9622230296077 Q 656.6666666666667 399.99999999999994 528.3333333333334 399.99999999999994 Z" fill="white" stroke="black" stroke-width="2"/>
  <path id="area_layer10_shape0" d="M 516.6666666666667 400.0 Q 633.3333333333334 400.0 688.0757660069153 445.6267189700673 Q 621.9131871355358 472.1039653541544 510.9565935677679 436.0519826770772 Z" fill="white" stroke="black" stroke-width="2"/>
  <path id="area_layer10_shape1" d="M 510.9565935677679 436.0519826770772 Q 621.9131871355358 472.1039653541544 659.876902888274 532.4138957573679 Q 588.770632020821 537.1498922015771 494.3853160104105 468.57494610078857 Z" fill="white" stroke="black" stroke-width="2"/>
  <path id="area_layer10_shape2" d="M 494.3853160104105 468.57494610078857 Q 588.770632020821 537.1498922015771 606.2394778460764 606.2394778460764 Q 537.1498922015771 588.770632020821 468.57494610078857 494.3853160104105 Z" fill="white" stroke="black" stroke-width="2"/>
  <path id="area_layer10_shape3" d="M 468.57494610078857 494.3853160104105 Q 537.1498922015771 588.770632020821 532.4138957573679 659.876902888274 Q 472.1039653541544 621.9131871355358 436.0519826770772 510.9565935677679 Z" fill="white" stroke="black" stroke-width="2"/>
  <path id="area_layer10_shape4" d="M 436.0519826770772 510.9565935677679 Q 472.1039653541544 621.9131871355358 445.6267189700674 688.0757660069153 Q 400.0 633.3333333333334 400.0 516.6666666666667 Z" fill="white" stroke="black" stroke-width="2"/>
  <path id="area_layer10_shape5" d="M 400.0 516.6666666666667 Q 400.0 633.3333333333334 354.3732810299327 688.0757660069153 Q 327.8960346458456 621.9131871355358 363.9480173229228 510.9565935677679 Z" fill="white" stroke="black" stroke-width="2"/>
  <path id="area_layer10_shape6" d="M 363.9480173229228 510.9565935677679 Q 327.8960346458456 621.9131871355358 267.5861042426322 659.876902888274 Q 262.8501077984229 588.770632020821 331.42505389921143 494.3853160104105 Z" fill="white" stroke="black" stroke-width="2"/>
  <path id="area_layer10_shape7" d="M 331.42505389921143 494.3853160104105 Q 262.8501077984229 588.770632020821 193.76052215392363 606.2394778460764 Q 211.22936797917893 537.1498922015771 305.6146839895895 468.57494610078857 Z" fill="white" stroke="black" stroke-width="2"/>
  <path id="area_layer10_shape8" d="M 305.6146839895895 468.57494610078857 Q 211.22936797917893 537.1498922015771 140.12309711172605 532.4138957573679 Q 178.08681286446415 472.1039653541544 289.0434064322321 436.0519826770772 Z" fill="white" stroke="black" stroke-width="2"/>
  <path id="area_layer10_shape9" d="M 289.0434064322321 436.0519826770772 Q 178.08681286446415 472.1039653541544 111.92423399308484 445.6267189700674 Q 166.66666666666663 400.00000000000006 283.3333333333333 400.0 Z" fill="white" stroke="black" stroke-width="2"/>
  <path id="area_layer10_shape10" d="M 283.3333333333333 400.0 Q 166.66666666666663 400.00000000000006 111.92423399308478 354.3732810299327 Q 178.08681286446412 327.8960346458456 289.0434064322321 363.9480173229228 Z" fill="white" stroke="black" stroke-width="2"/>
  <path id="area_layer10_shape11" d="M 289.0434064322321 363.9480173229228 Q 178.08681286446412 327.8960346458456 140.123097111726 267.58610424263225 Q 211.2293679791789 262.8501077984229 305.6146839895895 331.42505389921143 Z" fill="white" stroke="black" stroke-width="2"/>
  <path id="area_layer10_shape12" d="M 305.6146839895895 331.42505389921143 Q 211.2293679791789 262.8501077984229 193.76052215392357 193.76052215392363 Q 262.85010779842287 211.22936797917893 331.42505389921143 305.6146839895895 Z" fill="white" stroke="black" stroke-width="2"/>
  <path id="area_layer10_shape13" d="M 331.42505389921143 305.6146839895895 Q 262.85010779842287 211.22936797917893 267.58610424263213 140.12309711172605 Q 327.8960346458456 178.08681286446415 363.9480173229228 289.0434064322321 Z" fill="white" stroke="black" stroke-width="2"/>
  <path id="area_layer10_shape14" d="M 363.9480173229228 289.0434064322321 Q 327.8960346458456 178.08681286446415 354.3732810299326 111.92423399308484 Q 399.99999999999994 166.66666666666663 400.0 283.3333333333333 Z" fill="white" stroke="black" stroke-width="2"/>
  <path id="area_layer10_shape15" d="M 400.0 283.3333333333333 Q 399.99999999999994 166.66666666666663 445.62671897006726 111.92423399308478 Q 472.10396535415435 178.08681286446412 436.0519826770772 289.0434064322321 Z" fill="white" stroke="black" stroke-width="2"/>
  <path id="area_layer10_shape16" d="M 436.0519826770772 289.0434064322321 Q 472.10396535415435 178.08681286446412 532.4138957573678 140.123097111726 Q 537.149892201577 211.22936797917887 468.5749461007885 305.6146839895894 Z" fill="white" stroke="black" stroke-width="2"/>
  <path id="area_layer10_shape17" d="M 468.5749461007885 305.6146839895894 Q 537.149892201577 211.22936797917887 606.2394778460763 193.76052215392357 Q 588.770632020821 262.85010779842287 494.3853160104105 331.42505389921143 Z" fill="white" stroke="black" stroke-width="2"/>
  <path id="area_layer10_shape18" d="M 494.3853160104105 331.42505389921143 Q 588.770632020821 262.85010779842287 659.8769028882739 267.58610424263213 Q 621.9131871355358 327.89603464584553 510.9565935677679 363.94801732292274 Z" fill="white" stroke="black" stroke-width="2"/>
  <path id="area_layer10_shape19" d="M 510.9565935677679 363.94801732292274 Q 621.9131871355358 327.89603464584553 688.0757660069152 354.37328102993257 Q 633.3333333333334 399.99999999999994 516.6666666666667 399.99999999999994 Z" fill="white" stroke="black" stroke-width="2"/>
  <path id="area_layer9_shape0" d="M 505.0 400.0 Q 610.0 400.0 653.5555294008805 467.9399993394117 Q 581.8653347947321 505.0 490.93266739736606 452.5 Z" fill="white" stroke="black" stroke-width="2"/>
  <path id="area_layer9_shape1" d="M 490.93266739736606 452.5 Q 581.8653347947321 505.0 585.6155300614687 585.6155300614687 Q 505.0 581.8653347947321 452.5 490.93266739736606 Z" fill="white" stroke="black" stroke-width="2"/>
  <path id="area_layer9_shape2" d="M 452.5 490.93266739736606 Q 505.0 581.8653347947321 467.93999933941177 653.5555294008805 Q 400.0 610.0 400.0 505.0 Z" fill="white" stroke="black" stroke-width="2"/>
  <path id="area_layer9_shape3" d="M 400.0 505.0 Q 400.0 610.0 332.06000066058834 653.5555294008805 Q 295.0 581.8653347947321 347.5 490.93266739736606 Z" fill="white" stroke="black" stroke-width="2"/>
  <path id="area_layer9_shape4" d="M 347.5 490.93266739736606 Q 295.0 581.8653347947321 214.38446993853128 585.6155300614687 Q 218.1346652052679 505.00000000000006 309.06733260263394 452.50000000000006 Z" fill="white" stroke="black" stroke-width="2"/>
  <path id="area_layer9_shape5" d="M 309.06733260263394 452.50000000000006 Q 218.1346652052679 505.00000000000006 146.4444705991196 467.93999933941177 Q 190.0 400.0000000000001 295.0 400.00000000000006 Z" fill="white" stroke="black" stroke-width="2"/>
  <path id="area_layer9_shape6" d="M 295.0 400.0 Q 190.0 400.0 146.44447059911957 332.0600006605883 Q 218.13466520526785 295.00000000000006 309.06733260263394 347.5 Z" fill="white" stroke="black" stroke-width="2"/>
  <path id="area_layer9_shape7" d="M 309.06733260263394 347.5 Q 218.13466520526785 295.00000000000006 214.38446993853123 214.38446993853128 Q 294.9999999999999 218.13466520526794 347.49999999999994 309.067332602634 Z" fill="white" stroke="black" stroke-width="2"/>
  <path id="area_layer9_shape8" d="M 347.49999999999994 309.067332602634 Q 294.9999999999999 218.13466520526794 332.0600006605881 146.44447059911963 Q 399.99999999999994 190.0 400.0 295.0 Z" fill="white" stroke="black" stroke-width="2"/>
  <path id="area_layer9_shape9" d="M 400.0 295.0 Q 399.99999999999994 190.0 467.93999933941154 146.44447059911954 Q 505.0 218.1346652052679 452.5 309.06733260263394 Z" fill="white" stroke="black" stroke-width="2"/>
  <path id="area_layer9_shape10" d="M 452.49999999999994 309.0673326026339 Q 504.9999999999999 218.1346652052678 585.6155300614686 214.38446993853105 Q 581.865334794732 294.9999999999999 490.932667397366 347.49999999999994 Z" fill="white" stroke="black" stroke-width="2"/>
  <path id="area_layer9_shape11" d="M 490.932667397366 347.49999999999994 Q 581.865334794732 294.9999999999999 653.5555294008803 332.0600006605881 Q 610.0 399.99999999999994 505.0 400.0 Z" fill="white" stroke="black" stroke-width="2"/>
  <path id="area_layer8_shape0" d="M 493.33333333333337 400.0 Q 586.6666666666667 400.0 630.4606128055322 436.5013751760539 Q 577.5305497084287 457.68317228332353 488.76527485421434 428.84158614166176 Z" fill="white" stroke="black" stroke-width="2"/>
  <path id="area_layer8_shape1" d="M 488.76527485421434 428.84158614166176 Q 577.5305497084287 457.68317228332353 607.9015223106192 505.93111660589426 Q 551.0165056166569 509.71991376126164 475.50825280832845 454.8599568806308 Z" fill="white" stroke="black" stroke-width="2"/>
  <path id="area_layer8_shape2" d="M 475.50825280832845 454.8599568806308 Q 551.0165056166569 509.71991376126164 564.9915822768611 564.9915822768611 Q 509.71991376126164 551.0165056166569 454.8599568806308 475.50825280832845 Z" fill="white" stroke="black" stroke-width="2"/>
  <path id="area_layer8_shape3" d="M 454.8599568806308 475.50825280832845 Q 509.71991376126164 551.0165056166569 505.93111660589426 607.9015223106192 Q 457.68317228332353 577.5305497084287 428.84158614166176 488.76527485421434 Z" fill="white" stroke="black" stroke-width="2"/>
  <path id="area_layer8_shape4" d="M 428.84158614166176 488.76527485421434 Q 457.68317228332353 577.5305497084287 436.5013751760539 630.4606128055322 Q 400.0 586.6666666666667 400.0 493.33333333333337 Z" fill="white" stroke="black" stroke-width="2"/>
  <path id="area_layer8_shape5" d="M 400.0 493.33333333333337 Q 400.0 586.6666666666667 363.49862482394616 630.4606128055322 Q 342.31682771667647 577.5305497084287 371.15841385833824 488.76527485421434 Z" fill="white" stroke="black" stroke-width="2"/>
  <path id="area_layer8_shape6" d="M 371.15841385833824 488.76527485421434 Q 342.31682771667647 577.5305497084287 294.06888339410574 607.9015223106192 Q 290.28008623873836 551.0165056166569 345.1400431193692 475.50825280832845 Z" fill="white" stroke="black" stroke-width="2"/>
  <path id="area_layer8_shape7" d="M 345.1400431193692 475.50825280832845 Q 290.28008623873836 551.0165056166569 235.0084177231389 564.9915822768611 Q 248.98349438334316 509.7199137612617 324.4917471916716 454.8599568806308 Z" fill="white" stroke="black" stroke-width="2"/>
  <path id="area_layer8_shape8" d="M 324.4917471916716 454.8599568806308 Q 248.98349438334316 509.7199137612617 192.09847768938084 505.93111660589426 Q 222.46945029157132 457.68317228332353 311.23472514578566 428.84158614166176 Z" fill="white" stroke="black" stroke-width="2"/>
  <path id="area_layer8_shape9" d="M 311.23472514578566 428.84158614166176 Q 222.46945029157132 457.68317228332353 169.53938719446788 436.5013751760539 Q 213.33333333333331 400.0 306.66666666666663 400.0 Z" fill="white" stroke="black" stroke-width="2"/>
  <path id="area_layer8_shape10" d="M 306.66666666666663 400.0 Q 213.33333333333331 400.0 169.53938719446785 363.49862482394616 Q 222.4694502915713 342.31682771667647 311.23472514578566 371.15841385833824 Z" fill="white" stroke="black" stroke-width="2"/>
  <path id="area_layer8_shape11" d="M 311.23472514578566 371.15841385833824 Q 222.4694502915713 342.31682771667647 192.09847768938081 294.0688833941058 Q 248.98349438334313 290.28008623873836 324.49174719167155 345.1400431193692 Z" fill="white" stroke="black" stroke-width="2"/>
  <path id="area_layer8_shape12" d="M 324.49174719167155 345.1400431193692 Q 248.98349438334313 290.28008623873836 235.00841772313888 235.0084177231389 Q 290.2800862387383 248.98349438334316 345.1400431193692 324.4917471916716 Z" fill="white" stroke="black" stroke-width="2"/>
  <path id="area_layer8_shape13" d="M 345.1400431193692 324.4917471916716 Q 290.2800862387383 248.98349438334316 294.0688833941057 192.09847768938084 Q 342.31682771667647 222.46945029157132 371.15841385833824 311.23472514578566 Z" fill="white" stroke="black" stroke-width="2"/>
  <path id="area_layer8_shape14" d="M 371.15841385833824 311.23472514578566 Q 342.31682771667647 222.46945029157132 363.4986248239461 169.53938719446788 Q 399.99999999999994 213.33333333333331 400.0 306.66666666666663 Z" fill="white" stroke="black" stroke-width="2"/>
  <path id="area_layer8_shape15" d="M 400.0 306.66666666666663 Q 399.99999999999994 213.33333333333331 436.50137517605384 169.53938719446785 Q 457.6831722833235 222.4694502915713 428.84158614166176 311.23472514578566 Z" fill="white" stroke="black" stroke-width="2"/>
  <path id="area_layer8_shape16" d="M 428.84158614166176 311.23472514578566 Q 457.6831722833235 222.4694502915713 505.9311166058942 192.09847768938081 Q 509.71991376126164 248.9834943833431 454.8599568806308 324.49174719167155 Z" fill="white" stroke="black" stroke-width="2"/>
  <path id="area_layer8_shape17" d="M 454.8599568806308 324.49174719167155 Q 509.71991376126164 248.9834943833431 564.9915822768611 235.00841772313888 Q 551.0165056166568 290.2800862387383 475.5082528083284 345.1400431193691 Z" fill="white" stroke="black" stroke-width="2"/>
  <path id="area_layer8_shape18" d="M 475.5082528083284 345.1400431193691 Q 551.0165056166568 290.2800862387383 607.9015223106192 294.0688833941057 Q 577.5305497084287 342.3168277166764 488.76527485421434 371.15841385833824 Z" fill="white" stroke="black" stroke-width="2"/>
  <path id="area_layer8_shape19" d="M 488.76527485421434 371.15841385833824 Q 577.5305497084287 342.3168277166764 630.4606128055322 363.4986248239461 Q 586.6666666666667 399.99999999999994 493.33333333333337 400.0 Z" fill="white" stroke="black" stroke-width="2"/>
  <path id="area_layer7_shape0" d="M 481.6666666666667 400.0 Q 563.3333333333334 400.0 597.2098562006848 452.84222170843134 Q 541.4508159514584 481.6666666666667 470.7254079757292 440.8333333333333 Z" fill="white" stroke="black" stroke-width="2"/>
  <path id="area_layer7_shape1" d="M 470.7254079757292 440.8333333333333 Q 541.4508159514584 481.6666666666667 544.3676344922535 544.3676344922535 Q 481.6666666666667 541.4508159514584 440.83333333333337 470.7254079757292 Z" fill="white" stroke="black" stroke-width="2"/>
  <path id="area_layer7_shape2" d="M 440.83333333333337 470.7254079757292 Q 481.6666666666667 541.4508159514584 452.84222170843134 597.2098562006847 Q 400.0 563.3333333333334 400.0 481.6666666666667 Z" fill="white" stroke="black" stroke-width="2"/>
  <path id="area_layer7_shape3" d="M 400.0 481.6666666666667 Q 400.0 563.3333333333334 347.1577782915687 597.2098562006848 Q 318.33333333333337 541.4508159514584 359.1666666666667 470.7254079757292 Z" fill="white" stroke="black" stroke-width="2"/>
  <path id="area_layer7_shape4" d="M 359.1666666666667 470.7254079757292 Q 318.33333333333337 541.4508159514584 255.63236550774656 544.3676344922535 Q 258.5491840485417 481.66666666666674 329.2745920242709 440.83333333333337 Z" fill="white" stroke="black" stroke-width="2"/>
  <path id="area_layer7_shape5" d="M 329.2745920242709 440.83333333333337 Q 258.5491840485417 481.66666666666674 202.79014379931522 452.8422217084314 Q 236.66666666666663 400.0000000000001 318.3333333333333 400.00000000000006 Z" fill="white" stroke="black" stroke-width="2"/>
  <path id="area_layer7_shape6" d="M 318.3333333333333 400.0 Q 236.66666666666663 400.0 202.7901437993152 347.15777829156866 Q 258.54918404854163 318.33333333333337 329.2745920242708 359.1666666666667 Z" fill="white" stroke="black" stroke-width="2"/>
  <path id="area_layer7_shape7" d="M 329.2745920242708 359.1666666666667 Q 258.54918404854163 318.33333333333337 255.6323655077465 255.63236550774656 Q 318.33333333333326 258.5491840485417 359.16666666666663 329.2745920242709 Z" fill="white" stroke="black" stroke-width="2"/>
  <path id="area_layer7_shape8" d="M 359.16666666666663 329.2745920242709 Q 318.33333333333326 258.5491840485417 347.15777829156855 202.79014379931525 Q 399.99999999999994 236.66666666666663 400.0 318.3333333333333 Z" fill="white" stroke="black" stroke-width="2"/>
  <path id="area_layer7_shape9" d="M 400.0 318.3333333333333 Q 399.99999999999994 236.66666666666663 452.8422217084312 202.7901437993152 Q 481.6666666666667 258.54918404854163 440.83333333333337 329.2745920242708 Z" fill="white" stroke="black" stroke-width="2"/>
  <path id="area_layer7_shape10" d="M 440.83333333333326 329.27459202427076 Q 481.6666666666666 258.5491840485416 544.3676344922533 255.63236550774636 Q 541.4508159514583 318.33333333333326 470.7254079757291 359.16666666666663 Z" fill="white" stroke="black" stroke-width="2"/>
  <path id="area_layer7_shape11" d="M 470.7254079757291 359.16666666666663 Q 541.4508159514583 318.33333333333326 597.2098562006847 347.1577782915685 Q 563.3333333333334 399.99999999999994 481.6666666666667 400.0 Z" fill="white" stroke="black" stroke-width="2"/>
  <path id="area_layer6_shape0" d="M 470.0 400.0 Q 540.0 400.0 572.8454596041491 427.3760313820404 Q 533.1479122813215 443.26237921249265 466.57395614066075 421.6311896062463 Z" fill="white" stroke="black" stroke-width="2"/>
  <path id="area_layer6_shape1" d="M 466.57395614066075 421.6311896062463 Q 533.1479122813215 443.26237921249265 555.9261417329644 479.4483374544207 Q 513.2623792124926 482.28993532094626 456.6311896062463 441.1449676604731 Z" fill="white" stroke="black" stroke-width="2"/>
  <path id="area_layer6_shape2" d="M 456.6311896062463 441.1449676604731 Q 513.2623792124926 482.28993532094626 523.7436867076458 523.7436867076458 Q 482.28993532094626 513.2623792124926 441.1449676604731 456.6311896062463 Z" fill="white" stroke="black" stroke-width="2"/>
  <path id="area_layer6_shape3" d="M 441.1449676604731 456.6311896062463 Q 482.28993532094626 513.2623792124926 479.4483374544207 555.9261417329644 Q 443.26237921249265 533.1479122813215 421.6311896062463 466.57395614066075 Z" fill="white" stroke="black" stroke-width="2"/>
  <path id="area_layer6_shape4" d="M 421.6311896062463 466.57395614066075 Q 443.26237921249265 533.1479122813215 427.3760313820404 572.8454596041491 Q 400.0 540.0 400.0 470.0 Z" fill="white" stroke="black" stroke-width="2"/>
  <path id="area_layer6_shape5" d="M 400.0 470.0 Q 400.0 540.0 372.62396861795963 572.8454596041491 Q 356.73762078750735 533.1479122813215 378.3688103937537 466.57395614066075 Z" fill="white" stroke="black" stroke-width="2"/>
  <path id="area_layer6_shape6" d="M 378.3688103937537 466.57395614066075 Q 356.73762078750735 533.1479122813215 320.55166254557935 555.9261417329644 Q 317.71006467905374 513.2623792124926 358.8550323395269 456.6311896062463 Z" fill="white" stroke="black" stroke-width="2"/>
  <path id="area_layer6_shape7" d="M 358.8550323395269 456.6311896062463 Q 317.71006467905374 513.2623792124926 276.2563132923542 523.7436867076458 Q 286.73762078750735 482.28993532094626 343.3688103937537 441.1449676604731 Z" fill="white" stroke="black" stroke-width="2"/>
  <path id="area_layer6_shape8" d="M 343.3688103937537 441.1449676604731 Q 286.73762078750735 482.28993532094626 244.07385826703563 479.4483374544207 Q 266.8520877186785 443.26237921249265 333.42604385933925 421.6311896062463 Z" fill="white" stroke="black" stroke-width="2"/>
  <path id="area_layer6_shape9" d="M 333.42604385933925 421.6311896062463 Q 266.8520877186785 443.26237921249265 227.15454039585092 427.3760313820404 Q 260.0 400.0 330.0 400.0 Z" fill="white" stroke="black" stroke-width="2"/>
  <path id="area_layer6_shape10" d="M 330.0 400.0 Q 260.0 400.0 227.1545403958509 372.62396861795963 Q 266.8520877186785 356.73762078750735 333.42604385933925 378.3688103937537 Z" fill="white" stroke="black" stroke-width="2"/>
  <path id="area_layer6_shape11" d="M 333.42604385933925 378.3688103937537 Q 266.8520877186785 356.73762078750735 244.0738582670356 320.55166254557935 Q 286.73762078750735 317.71006467905374 343.3688103937537 358.8550323395269 Z" fill="white" stroke="black" stroke-width="2"/>
  <path id="area_layer6_shape12" d="M 343.3688103937537 358.8550323395269 Q 286.73762078750735 317.71006467905374 276.25631329235415 276.2563132923542 Q 317.71006467905374 286.73762078750735 358.8550323395269 343.3688103937537 Z" fill="white" stroke="black" stroke-width="2"/>
  <path id="area_layer6_shape13" d="M 358.8550323395269 343.3688103937537 Q 317.71006467905374 286.73762078750735 320.5516625455793 244.07385826703563 Q 356.73762078750735 266.8520877186785 378.3688103937537 333.42604385933925 Z" fill="white" stroke="black" stroke-width="2"/>
  <path id="area_layer6_shape14" d="M 378.3688103937537 333.42604385933925 Q 356.73762078750735 266.8520877186785 372.6239686179596 227.15454039585092 Q 400.0 260.0 400.0 330.0 Z" fill="white" stroke="black" stroke-width="2"/>
  <path id="area_layer6_shape15" d="M 400.0 330.0 Q 400.0 260.0 427.37603138204037 227.1545403958509 Q 443.2623792124926 266.8520877186785 421.6311896062463 333.42604385933925 Z" fill="white" stroke="black" stroke-width="2"/>
  <path id="area_layer6_shape16" d="M 421.6311896062463 333.42604385933925 Q 443.2623792124926 266.8520877186785 479.44833745442065 244.0738582670356 Q 482.2899353209462 286.73762078750735 441.1449676604731 343.3688103937537 Z" fill="white" stroke="black" stroke-width="2"/>
  <path id="area_layer6_shape17" d="M 441.1449676604731 343.3688103937537 Q 482.2899353209462 286.73762078750735 523.7436867076458 276.25631329235415 Q 513.2623792124926 317.71006467905374 456.6311896062463 358.8550323395269 Z" fill="white" stroke="black" stroke-width="2"/>
  <path id="area_layer6_shape18" d="M 456.6311896062463 358.8550323395269 Q 513.2623792124926 317.71006467905374 555.9261417329644 320.5516625455793 Q 533.1479122813215 356.73762078750735 466.57395614066075 378.3688103937537 Z" fill="white" stroke="black" stroke-width="2"/>
  <path id="area_layer6_shape19" d="M 466.57395614066075 378.3688103937537 Q 533.1479122813215 356.73762078750735 572.845459604149 372.6239686179596 Q 540.0 399.99999999999994 470.0 400.0 Z" fill="white" stroke="black" stroke-width="2"/>
  <path id="area_layer5_shape0" d="M 458.33333333333337 400.0 Q 516.6666666666667 400.0 540.8641830004891 437.74444407745096 Q 501.0362971081845 458.3333333333333 450.51814855409225 429.1666666666667 Z" fill="white" stroke="black" stroke-width="2"/>
  <path id="area_layer5_shape1" d="M 450.51814855409225 429.1666666666667 Q 501.0362971081845 458.3333333333333 503.1197389230382 503.1197389230382 Q 458.33333333333337 501.0362971081845 429.1666666666667 450.51814855409225 Z" fill="white" stroke="black" stroke-width="2"/>
  <path id="area_layer5_shape2" d="M 429.1666666666667 450.51814855409225 Q 458.33333333333337 501.0362971081845 437.74444407745096 540.8641830004891 Q 400.0 516.6666666666667 400.0 458.33333333333337 Z" fill="white" stroke="black" stroke-width="2"/>
  <path id="area_layer5_shape3" d="M 400.0 458.33333333333337 Q 400.0 516.6666666666667 362.2555559225491 540.8641830004891 Q 341.6666666666667 501.0362971081845 370.8333333333333 450.51814855409225 Z" fill="white" stroke="black" stroke-width="2"/>
  <path id="area_layer5_shape4" d="M 370.8333333333333 450.51814855409225 Q 341.6666666666667 501.0362971081845 296.8802610769618 503.1197389230382 Q 298.9637028918155 458.33333333333337 349.48185144590775 429.1666666666667 Z" fill="white" stroke="black" stroke-width="2"/>
  <path id="area_layer5_shape5" d="M 349.48185144590775 429.1666666666667 Q 298.9637028918155 458.33333333333337 259.1358169995109 437.74444407745096 Q 283.3333333333333 400.00000000000006 341.66666666666663 400.00000000000006 Z" fill="white" stroke="black" stroke-width="2"/>
  <path id="area_layer5_shape6" d="M 341.66666666666663 400.0 Q 283.3333333333333 400.0 259.1358169995109 362.25555592254904 Q 298.96370289181544 341.6666666666667 349.48185144590775 370.83333333333337 Z" fill="white" stroke="black" stroke-width="2"/>
  <path id="area_layer5_shape7" d="M 349.48185144590775 370.83333333333337 Q 298.96370289181544 341.6666666666667 296.8802610769618 296.8802610769618 Q 341.66666666666663 298.9637028918155 370.8333333333333 349.48185144590775 Z" fill="white" stroke="black" stroke-width="2"/>
  <path id="area_layer5_shape8" d="M 370.8333333333333 349.48185144590775 Q 341.66666666666663 298.9637028918155 362.2555559225489 259.1358169995109 Q 400.0 283.3333333333333 400.0 341.66666666666663 Z" fill="white" stroke="black" stroke-width="2"/>
  <path id="area_layer5_shape9" d="M 400.0 341.66666666666663 Q 400.0 283.3333333333333 437.7444440774509 259.13581699951084 Q 458.33333333333337 298.9637028918155 429.1666666666667 349.48185144590775 Z" fill="white" stroke="black" stroke-width="2"/>
  <path id="area_layer5_shape10" d="M 429.16666666666663 349.4818514459077 Q 458.33333333333326 298.96370289181544 503.1197389230381 296.8802610769617 Q 501.0362971081845 341.66666666666663 450.51814855409225 370.8333333333333 Z" fill="white" stroke="black" stroke-width="2"/>
  <path id="area_layer5_shape11" d="M 450.51814855409225 370.8333333333333 Q 501.0362971081845 341.66666666666663 540.8641830004891 362.2555559225489 Q 516.6666666666667 399.99999999999994 458.33333333333337 400.0 Z" fill="white" stroke="black" stroke-width="2"/>
  <path id="area_layer4_shape0" d="M 446.6666666666667 400.0 Q 493.33333333333337 400.0 515.230306402766 418.25068758802695 Q 488.76527485421434 428.84158614166176 444.38263742710717 414.4207930708309 Z" fill="white" stroke="black" stroke-width="2"/>
  <path id="area_layer4_shape1" d="M 444.38263742710717 414.4207930708309 Q 488.76527485421434 428.84158614166176 503.9507611553096 452.9655583029471 Q 475.50825280832845 454.8599568806308 437.7541264041642 427.42997844031544 Z" fill="white" stroke="black" stroke-width="2"/>
  <path id="area_layer4_shape2" d="M 437.7541264041642 427.42997844031544 Q 475.50825280832845 454.8599568806308 482.49579113843055 482.49579113843055 Q 454.8599568806308 475.50825280832845 427.42997844031544 437.7541264041642 Z" fill="white" stroke="black" stroke-width="2"/>
  <path id="area_layer4_shape3" d="M 427.42997844031544 437.7541264041642 Q 454.8599568806308 475.50825280832845 452.96555830294716 503.9507611553096 Q 428.84158614166176 488.76527485421434 414.4207930708309 444.38263742710717 Z" fill="white" stroke="black" stroke-width="2"/>
  <path id="area_layer4_shape4" d="M 414.4207930708309 444.38263742710717 Q 428.84158614166176 488.76527485421434 418.25068758802695 515.230306402766 Q 400.0 493.33333333333337 400.0 446.6666666666667 Z" fill="white" stroke="black" stroke-width="2"/>
  <path id="area_layer4_shape5" d="M 400.0 446.6666666666667 Q 400.0 493.33333333333337 381.74931241197305 515.230306402766 Q 371.15841385833824 488.76527485421434 385.5792069291691 444.38263742710717 Z" fill="white" stroke="black" stroke-width="2"/>
  <path id="area_layer4_shape6" d="M 385.5792069291691 444.38263742710717 Q 371.15841385833824 488.76527485421434 347.0344416970529 503.9507611553096 Q 345.1400431193692 475.50825280832845 372.5700215596846 437.7541264041642 Z" fill="white" stroke="black" stroke-width="2"/>
  <path id="area_layer4_shape7" d="M 372.5700215596846 437.7541264041642 Q 345.1400431193692 475.50825280832845 317.50420886156945 482.49579113843055 Q 324.4917471916716 454.8599568806308 362.2458735958358 427.42997844031544 Z" fill="white" stroke="black" stroke-width="2"/>
  <path id="area_layer4_shape8" d="M 362.2458735958358 427.42997844031544 Q 324.4917471916716 454.8599568806308 296.0492388446904 452.96555830294716 Q 311.23472514578566 428.84158614166176 355.61736257289283 414.4207930708309 Z" fill="white" stroke="black" stroke-width="2"/>
  <path id="area_layer4_shape9" d="M 355.61736257289283 414.4207930708309 Q 311.23472514578566 428.84158614166176 284.7696935972339 418.25068758802695 Q 306.66666666666663 400.0 353.3333333333333 400.0 Z" fill="white" stroke="black" stroke-width="2"/>
  <path id="area_layer4_shape10" d="M 353.3333333333333 400.0 Q 306.66666666666663 400.0 284.7696935972339 381.74931241197305 Q 311.23472514578566 371.15841385833824 355.61736257289283 385.5792069291691 Z" fill="white" stroke="black" stroke-width="2"/>
  <path id="area_layer4_shape11" d="M 355.61736257289283 385.5792069291691 Q 311.23472514578566 371.15841385833824 296.0492388446904 347.0344416970529 Q 324.49174719167155 345.1400431193692 362.2458735958358 372.5700215596846 Z" fill="white" stroke="black" stroke-width="2"/>
  <path id="area_layer4_shape12" d="M 362.2458735958358 372.5700215596846 Q 324.49174719167155 345.1400431193692 317.50420886156945 317.50420886156945 Q 345.1400431193692 324.4917471916716 372.57002155968456 362.2458735958358 Z" fill="white" stroke="black" stroke-width="2"/>
  <path id="area_layer4_shape13" d="M 372.57002155968456 362.2458735958358 Q 345.1400431193692 324.4917471916716 347.03444169705284 296.0492388446904 Q 371.15841385833824 311.23472514578566 385.5792069291691 355.61736257289283 Z" fill="white" stroke="black" stroke-width="2"/>
  <path id="area_layer4_shape14" d="M 385.5792069291691 355.61736257289283 Q 371.15841385833824 311.23472514578566 381.74931241197305 284.7696935972339 Q 400.0 306.66666666666663 400.0 353.3333333333333 Z" fill="white" stroke="black" stroke-width="2"/>
  <path id="area_layer4_shape15" d="M 400.0 353.3333333333333 Q 400.0 306.66666666666663 418.2506875880269 284.7696935972339 Q 428.84158614166176 311.23472514578566 414.4207930708309 355.61736257289283 Z" fill="white" stroke="black" stroke-width="2"/>
  <path id="area_layer4_shape16" d="M 414.4207930708309 355.61736257289283 Q 428.84158614166176 311.23472514578566 452.9655583029471 296.0492388446904 Q 454.8599568806308 324.49174719167155 427.4299784403154 362.24587359583575 Z" fill="white" stroke="black" stroke-width="2"/>
  <path id="area_layer4_shape17" d="M 427.4299784403154 362.24587359583575 Q 454.8599568806308 324.49174719167155 482.49579113843055 317.50420886156945 Q 475.5082528083284 345.1400431193691 437.7541264041642 372.57002155968456 Z" fill="white" stroke="black" stroke-width="2"/>
  <path id="area_layer4_shape18" d="M 437.7541264041642 372.57002155968456 Q 475.5082528083284 345.1400431193691 503.9507611553096 347.03444169705284 Q 488.76527485421434 371.15841385833824 444.38263742710717 385.5792069291691 Z" fill="white" stroke="black" stroke-width="2"/>
  <path id="area_layer4_shape19" d="M 444.38263742710717 385.5792069291691 Q 488.76527485421434 371.15841385833824 515.230306402766 381.74931241197305 Q 493.33333333333337 400.0 446.6666666666667 400.0 Z" fill="white" stroke="black" stroke-width="2"/>
  <path id="area_layer3_shape0" d="M 435.0 400.0 Q 470.0 400.0 484.5185098002935 422.6466664464706 Q 460.6217782649107 435.0 430.3108891324554 417.5 Z" fill="white" stroke="black" stroke-width="2"/>
  <path id="area_layer3_shape1" d="M 430.3108891324554 417.5 Q 460.6217782649107 435.0 461.8718433538229 461.8718433538229 Q 435.0 460.6217782649107 417.5 430.3108891324554 Z" fill="white" stroke="black" stroke-width="2"/>
  <path id="area_layer3_shape2" d="M 417.5 430.3108891324554 Q 435.0 460.6217782649107 422.6466664464706 484.5185098002935 Q 400.0 470.0 400.0 435.0 Z" fill="white" stroke="black" stroke-width="2"/>
  <path id="area_layer3_shape3" d="M 400.0 435.0 Q 400.0 470.0 377.35333355352947 484.5185098002935 Q 365.0 460.6217782649107 382.5 430.3108891324554 Z" fill="white" stroke="black" stroke-width="2"/>
  <path id="area_layer3_shape4" d="M 382.5 430.3108891324554 Q 365.0 460.6217782649107 338.1281566461771 461.8718433538229 Q 339.3782217350893 435.0 369.6891108675446 417.5 Z" fill="white" stroke="black" stroke-width="2"/>
  <path id="area_layer3_shape5" d="M 369.6891108675446 417.5 Q 339.3782217350893 435.0 315.4814901997065 422.6466664464706 Q 330.0 400.00000000000006 365.0 400.0 Z" fill="white" stroke="black" stroke-width="2"/>
  <path id="area_layer3_shape6" d="M 365.0 400.0 Q 330.0 400.0 315.4814901997065 377.3533335535294 Q 339.37822173508926 365.0 369.6891108675446 382.5 Z" fill="white" stroke="black" stroke-width="2"/>
  <path id="area_layer3_shape7" d="M 369.6891108675446 382.5 Q 339.37822173508926 365.0 338.1281566461771 338.1281566461771 Q 365.0 339.3782217350893 382.5 369.6891108675446 Z" fill="white" stroke="black" stroke-width="2"/>
  <path id="area_layer3_shape8" d="M 382.5 369.6891108675446 Q 365.0 339.3782217350893 377.35333355352935 315.4814901997065 Q 400.0 330.0 400.0 365.0 Z" fill="white" stroke="black" stroke-width="2"/>
  <path id="area_layer3_shape9" d="M 400.0 365.0 Q 400.0 330.0 422.64666644647053 315.4814901997065 Q 435.0 339.3782217350893 417.5 369.6891108675446 Z" fill="white" stroke="black" stroke-width="2"/>
  <path id="area_layer3_shape10" d="M 417.5 369.6891108675446 Q 434.99999999999994 339.37822173508926 461.87184335382284 338.128156646177 Q 460.6217782649107 365.0 430.3108891324554 382.5 Z" fill="white" stroke="black" stroke-width="2"/>
  <path id="area_layer3_shape11" d="M 430.3108891324554 382.5 Q 460.6217782649107 365.0 484.5185098002935 377.35333355352935 Q 470.0 400.0 435.0 400.0 Z" fill="white" stroke="black" stroke-width="2"/>
  <path id="area_layer2_shape0" d="M 423.3333333333333 400.0 Q 446.6666666666667 400.0 457.615153201383 409.1253437940135 Q 444.38263742710717 414.4207930708309 422.1913187135536 407.21039653541544 Z" fill="white" stroke="black" stroke-width="2"/>
  <path id="area_layer2_shape1" d="M 422.1913187135536 407.21039653541544 Q 444.38263742710717 414.4207930708309 451.9753805776548 426.48277915147355 Q 437.7541264041642 427.42997844031544 418.8770632020821 413.7149892201577 Z" fill="white" stroke="black" stroke-width="2"/>
  <path id="area_layer2_shape2" d="M 418.8770632020821 413.7149892201577 Q 437.7541264041642 427.42997844031544 441.2478955692153 441.2478955692153 Q 427.42997844031544 437.7541264041642 413.7149892201577 418.8770632020821 Z" fill="white" stroke="black" stroke-width="2"/>
  <path id="area_layer2_shape3" d="M 413.7149892201577 418.8770632020821 Q 427.42997844031544 437.7541264041642 426.48277915147355 451.9753805776548 Q 414.4207930708309 444.38263742710717 407.21039653541544 422.1913187135536 Z" fill="white" stroke="black" stroke-width="2"/>
  <path id="area_layer2_shape4" d="M 407.21039653541544 422.1913187135536 Q 414.4207930708309 444.38263742710717 409.1253437940135 457.615153201383 Q 400.0 446.6666666666667 400.0 423.3333333333333 Z" fill="white" stroke="black" stroke-width="2"/>
  <path id="area_layer2_shape5" d="M 400.0 423.3333333333333 Q 400.0 446.6666666666667 390.8746562059865 457.615153201383 Q 385.5792069291691 444.38263742710717 392.78960346458456 422.1913187135536 Z" fill="white" stroke="black" stroke-width="2"/>
  <path id="area_layer2_shape6" d="M 392.78960346458456 422.1913187135536 Q 385.5792069291691 444.38263742710717 373.51722084852645 451.9753805776548 Q 372.5700215596846 437.7541264041642 386.2850107798423 418.8770632020821 Z" fill="white" stroke="black" stroke-width="2"/>
  <path id="area_layer2_shape7" d="M 386.2850107798423 418.8770632020821 Q 372.5700215596846 437.7541264041642 358.7521044307847 441.2478955692153 Q 362.2458735958358 427.42997844031544 381.1229367979179 413.7149892201577 Z" fill="white" stroke="black" stroke-width="2"/>
  <path id="area_layer2_shape8" d="M 381.1229367979179 413.7149892201577 Q 362.2458735958358 427.42997844031544 348.0246194223452 426.48277915147355 Q 355.61736257289283 414.4207930708309 377.8086812864464 407.21039653541544 Z" fill="white" stroke="black" stroke-width="2"/>
  <path id="area_layer2_shape9" d="M 377.8086812864464 407.21039653541544 Q 355.61736257289283 414.4207930708309 342.384846798617 409.1253437940135 Q 353.3333333333333 400.0 376.6666666666667 400.0 Z" fill="white" stroke="black" stroke-width="2"/>
  <path id="area_layer2_shape10" d="M 376.6666666666667 400.0 Q 353.3333333333333 400.0 342.384846798617 390.8746562059865 Q 355.61736257289283 385.5792069291691 377.8086812864464 392.78960346458456 Z" fill="white" stroke="black" stroke-width="2"/>
  <path id="area_layer2_shape11" d="M 377.8086812864464 392.78960346458456 Q 355.61736257289283 385.5792069291691 348.0246194223452 373.51722084852645 Q 362.2458735958358 372.5700215596846 381.1229367979179 386.2850107798423 Z" fill="white" stroke="black" stroke-width="2"/>
  <path id="area_layer2_shape12" d="M 381.1229367979179 386.2850107798423 Q 362.2458735958358 372.5700215596846 358.7521044307847 358.7521044307847 Q 372.57002155968456 362.2458735958358 386.2850107798423 381.1229367979179 Z" fill="white" stroke="black" stroke-width="2"/>
  <path id="area_layer2_shape13" d="M 386.2850107798423 381.1229367979179 Q 372.57002155968456 362.2458735958358 373.51722084852645 348.0246194223452 Q 385.5792069291691 355.61736257289283 392.78960346458456 377.8086812864464 Z" fill="white" stroke="black" stroke-width="2"/>
  <path id="area_layer2_shape14" d="M 392.78960346458456 377.8086812864464 Q 385.5792069291691 355.61736257289283 390.8746562059865 342.384846798617 Q 400.0 353.3333333333333 400.0 376.6666666666667 Z" fill="white" stroke="black" stroke-width="2"/>
  <path id="area_layer2_shape15" d="M 400.0 376.6666666666667 Q 400.0 353.3333333333333 409.1253437940135 342.384846798617 Q 414.4207930708309 355.61736257289283 407.21039653541544 377.8086812864464 Z" fill="white" stroke="black" stroke-width="2"/>
  <path id="area_layer2_shape16" d="M 407.21039653541544 377.8086812864464 Q 414.4207930708309 355.61736257289283 426.48277915147355 348.0246194223452 Q 427.4299784403154 362.24587359583575 413.7149892201577 381.1229367979179 Z" fill="white" stroke="black" stroke-width="2"/>
  <path id="area_layer2_shape17" d="M 413.7149892201577 381.1229367979179 Q 427.4299784403154 362.24587359583575 441.24789556921525 358.7521044307847 Q 437.7541264041642 372.57002155968456 418.8770632020821 386.2850107798423 Z" fill="white" stroke="black" stroke-width="2"/>
  <path id="area_layer2_shape18" d="M 418.8770632020821 386.2850107798423 Q 437.7541264041642 372.57002155968456 451.9753805776548 373.51722084852645 Q 444.38263742710717 385.5792069291691 422.1913187135536 392.78960346458456 Z" fill="white" stroke="black" stroke-width="2"/>
  <path id="area_layer2_shape19" d="M 422.1913187135536 392.78960346458456 Q 444.38263742710717 385.5792069291691 457.615153201383 390.8746562059865 Q 446.6666666666667 400.0 423.3333333333333 400.0 Z" fill="white" stroke="black" stroke-width="2"/>
  <path id="area_layer1_shape0" d="M 411.6666666666667 400.0 Q 423.3333333333333 400.0 428.1728366000978 407.5488888154902 Q 420.2072594216369 411.6666666666667 410.10362971081844 405.8333333333333 Z" fill="white" stroke="black" stroke-width="2"/>
  <path id="area_layer1_shape1" d="M 410.10362971081844 405.8333333333333 Q 420.2072594216369 411.6666666666667 420.62394778460765 420.62394778460765 Q 411.6666666666667 420.2072594216369 405.8333333333333 410.10362971081844 Z" fill="white" stroke="black" stroke-width="2"/>
  <path id="area_layer1_shape2" d="M 405.8333333333333 410.10362971081844 Q 411.6666666666667 420.2072594216369 407.5488888154902 428.1728366000978 Q 400.0 423.3333333333333 400.0 411.6666666666667 Z" fill="white" stroke="black" stroke-width="2"/>
  <path id="area_layer1_shape3" d="M 400.0 411.6666666666667 Q 400.0 423.3333333333333 392.45111118450984 428.1728366000978 Q 388.3333333333333 420.2072594216369 394.1666666666667 410.10362971081844 Z" fill="white" stroke="black" stroke-width="2"/>
  <path id="area_layer1_shape4" d="M 394.1666666666667 410.10362971081844 Q 388.3333333333333 420.2072594216369 379.37605221539235 420.62394778460765 Q 379.7927405783631 411.6666666666667 389.89637028918156 405.8333333333333 Z" fill="white" stroke="black" stroke-width="2"/>
  <path id="area_layer1_shape5" d="M 389.89637028918156 405.8333333333333 Q 379.7927405783631 411.6666666666667 371.8271633999022 407.5488888154902 Q 376.6666666666667 400.0 388.3333333333333 400.0 Z" fill="white" stroke="black" stroke-width="2"/>
  <path id="area_layer1_shape6" d="M 388.3333333333333 400.0 Q 376.6666666666667 400.0 371.8271633999022 392.4511111845098 Q 379.79274057836307 388.3333333333333 389.89637028918156 394.1666666666667 Z" fill="white" stroke="black" stroke-width="2"/>
  <path id="area_layer1_shape7" d="M 389.89637028918156 394.1666666666667 Q 379.79274057836307 388.3333333333333 379.37605221539235 379.37605221539235 Q 388.3333333333333 379.7927405783631 394.1666666666667 389.89637028918156 Z" fill="white" stroke="black" stroke-width="2"/>
  <path id="area_layer1_shape8" d="M 394.1666666666667 389.89637028918156 Q 388.3333333333333 379.7927405783631 392.4511111845098 371.8271633999022 Q 400.0 376.6666666666667 400.0 388.3333333333333 Z" fill="white" stroke="black" stroke-width="2"/>
  <path id="area_layer1_shape9" d="M 400.0 388.3333333333333 Q 400.0 376.6666666666667 407.54888881549016 371.8271633999022 Q 411.6666666666667 379.7927405783631 405.8333333333333 389.89637028918156 Z" fill="white" stroke="black" stroke-width="2"/>
  <path id="area_layer1_shape10" d="M 405.8333333333333 389.89637028918156 Q 411.66666666666663 379.79274057836307 420.6239477846076 379.37605221539235 Q 420.2072594216369 388.3333333333333 410.10362971081844 394.1666666666667 Z" fill="white" stroke="black" stroke-width="2"/>
  <path id="area_layer1_shape11" d="M 410.10362971081844 394.1666666666667 Q 420.2072594216369 388.3333333333333 428.1728366000978 392.4511111845098 Q 423.3333333333333 400.0 411.6666666666667 400.0 Z" fill="white" stroke="black" stroke-width="2"/>
  <path id="area_center" d="M 400.0 380.0 A 20 20 0 1 0 400.0 420.0 A 20 20 0 1 0 400.0 380.0 Z" fill="white" stroke="black" stroke-width="2"/>
</g>
</svg>
