<?xml version="1.0" encoding="UTF-8"?>
<svg width="800" height="800" viewBox="0 0 800 800" xmlns="http://www.w3.org/2000/svg">
<g id="fill-areas">
  <path id="area_layer4_shape0" d="M 540.0 400.0 Q 680.0 400.0 732.8697807033037 508.15594803123156 Q 626.5247584249853 564.5798706418925 513.2623792124926 482.28993532094626 Z" fill="white" stroke="black" stroke-width="2"/>
  <path id="area_layer4_shape1" d="M 513.2623792124926 482.28993532094626 Q 626.5247584249853 564.5798706418925 605.7248383023656 683.1559480312317 Q 486.5247584249853 666.295824562643 443.26237921249265 533.1479122813215 Z" fill="white" stroke="black" stroke-width="2"/>
  <path id="area_layer4_shape2" d="M 443.26237921249265 533.1479122813215 Q 486.5247584249853 666.295824562643 400.0 750.0 Q 313.47524157501476 666.295824562643 356.73762078750735 533.1479122813215 Z" fill="white" stroke="black" stroke-width="2"/>
  <path id="area_layer4_shape3" d="M 356.73762078750735 533.1479122813215 Q 313.47524157501476 666.295824562643 194.27516169763445 683.1559480312317 Q 173.47524157501473 564.5798706418925 286.73762078750735 482.28993532094626 Z" fill="white" stroke="black" stroke-width="2"/>
  <path id="area_layer4_shape4" d="M 286.73762078750735 482.28993532094626 Q 173.47524157501473 564.5798706418925 67.13021929669628 508.1559480312316 Q 120.0 400.00000000000006 260.0 400.0 Z" fill="white" stroke="black" stroke-width="2"/>
  <path id="area_layer4_shape5" d="M 260.0 400.0 Q 120.0 400.00000000000006 67.13021929669623 291.84405196876844 Q 173.4752415750147 235.42012935810754 286.73762078750735 317.71006467905374 Z" fill="white" stroke="black" stroke-width="2"/>
  <path id="area_layer4_shape6" d="M 286.73762078750735 317.71006467905374 Q 173.4752415750147 235.42012935810754 194.27516169763436 116.84405196876844 Q 313.4752415750147 133.70417543735704 356.73762078750735 266.8520877186785 Z" fill="white" stroke="black" stroke-width="2"/>
  <path id="area_layer4_shape7" d="M 356.73762078750735 266.8520877186785 Q 313.4752415750147 133.70417543735704 399.99999999999994 50.0 Q 486.52475842498524 133.70417543735698 443.2623792124926 266.8520877186785 Z" fill="white" stroke="black" stroke-width="2"/>
  <path id="area_layer4_shape8" d="M 443.2623792124926 266.8520877186785 Q 486.52475842498524 133.70417543735698 605.7248383023655 116.84405196876833 Q 626.5247584249853 235.42012935810746 513.2623792124926 317.71006467905374 Z" fill="white" stroke="black" stroke-width="2"/>
  <path id="area_layer4_shape9" d="M 513.2623792124926 317.71006467905374 Q 626.5247584249853 235.42012935810746 732.8697807033037 291.8440519687683 Q 680.0 399.99999999999994 540.0 399.99999999999994 Z" fill="white" stroke="black" stroke-width="2"/>
  <path id="area_layer3_shape0" d="M 505.0 400.0 Q 610.0 400.0 636.504327824385 513.894481518359 Q 530.9328583903341 564.1846113182862 465.46642919516705 482.0923056591431 Z" fill="white" stroke="black" stroke-width="2"/>
  <path id="area_layer3_shape1" d="M 465.46642919516705 482.0923056591431 Q 530.9328583903341 564.1846113182862 458.41174516353254 655.9185769477288 Q 353.270603869174 604.734861558183 376.635301934587 502.3674307790915 Z" fill="white" stroke="black" stroke-width="2"/>
  <path id="area_layer3_shape2" d="M 376.635301934587 502.3674307790915 Q 353.270603869174 604.734861558183 236.33392701208246 605.2307641478578 Q 210.796537740492 491.11558521468726 305.398268870246 445.55779260734363 Z" fill="white" stroke="black" stroke-width="2"/>
  <path id="area_layer3_shape3" d="M 305.398268870246 445.55779260734363 Q 210.796537740492 491.11558521468726 137.5 400.00000000000006 Q 210.79653774049197 308.8844147853128 305.398268870246 354.4422073926564 Z" fill="white" stroke="black" stroke-width="2"/>
  <path id="area_layer3_shape4" d="M 305.398268870246 354.4422073926564 Q 210.79653774049197 308.8844147853128 236.33392701208243 194.7692358521422 Q 353.27060386917395 195.26513844181704 376.63530193458695 297.6325692209085 Z" fill="white" stroke="black" stroke-width="2"/>
  <path id="area_layer3_shape5" d="M 376.63530193458695 297.6325692209085 Q 353.27060386917395 195.26513844181704 458.4117451635325 144.0814230522713 Q 530.932858390334 235.81538868171373 465.466429195167 317.9076943408569 Z" fill="white" stroke="black" stroke-width="2"/>
  <path id="area_layer3_shape6" d="M 465.466429195167 317.9076943408569 Q 530.932858390334 235.81538868171373 636.504327824385 286.10551848164096 Q 610.0 399.99999999999994 505.0 400.0 Z" fill="white" stroke="black" stroke-width="2"/>
  <path id="area_layer2_shape0" d="M 470.0 400.0 Q 540.0 400.0 566.4348903516518 454.0779740156158 Q 513.2623792124926 482.28993532094626 456.6311896062463 441.1449676604731 Z" fill="white" stroke="black" stroke-width="2"/>
  <path id="area_layer2_shape1" d="M 456.6311896062463 441.1449676604731 Q 513.2623792124926 482.28993532094626 502.8624191511828 541.5779740156158 Q 443.26237921249265 533.1479122813215 421.6311896062463 466.57395614066075 Z" fill="white" stroke="black" stroke-width="2"/>
  <path id="area_layer2_shape2" d="M 421.6311896062463 466.57395614066075 Q 443.26237921249265 533.1479122813215 400.0 575.0 Q 356.73762078750735 533.1479122813215 378.3688103937537 466.57395614066075 Z" fill="white" stroke="black" stroke-width="2"/>
  <path id="area_layer2_shape3" d="M 378.3688103937537 466.57395614066075 Q 356.73762078750735 533.1479122813215 297.1375808488172 541.5779740156158 Q 286.73762078750735 482.28993532094626 343.3688103937537 441.1449676604731 Z" fill="white" stroke="black" stroke-width="2"/>
  <path id="area_layer2_shape4" d="M 343.3688103937537 441.1449676604731 Q 286.73762078750735 482.28993532094626 233.56510964834814 454.07797401561584 Q 260.0 400.0 330.0 400.0 Z" fill="white" stroke="black" stroke-width="2"/>
  <path id="area_layer2_shape5" d="M 330.0 400.0 Q 260.0 400.0 233.5651096483481 345.9220259843842 Q 286.73762078750735 317.71006467905374 343.3688103937537 358.8550323395269 Z" fill="white" stroke="black" stroke-width="2"/>
  <path id="area_layer2_shape6" d="M 343.3688103937537 358.8550323395269 Q 286.73762078750735 317.71006467905374 297.13758084881715 258.4220259843842 Q 356.73762078750735 266.8520877186785 378.3688103937537 333.42604385933925 Z" fill="white" stroke="black" stroke-width="2"/>
  <path id="area_layer2_shape7" d="M 378.3688103937537 333.42604385933925 Q 356.73762078750735 266.8520877186785 399.99999999999994 225.0 Q 443.2623792124926 266.8520877186785 421.6311896062463 333.42604385933925 Z" fill="white" stroke="black" stroke-width="2"/>
  <path id="area_layer2_shape8" d="M 421.6311896062463 333.42604385933925 Q 443.2623792124926 266.8520877186785 502.86241915118273 258.42202598438416 Q 513.2623792124926 317.71006467905374 456.6311896062463 358.8550323395269 Z" fill="white" stroke="black" stroke-width="2"/>
  <path id="area_layer2_shape9" d="M 456.6311896062463 358.8550323395269 Q 513.2623792124926 317.71006467905374 566.4348903516518 345.92202598438416 Q 540.0 399.99999999999994 470.0 400.0 Z" fill="white" stroke="black" stroke-width="2"/>
  <path id="area_layer1_shape0" d="M 435.0 400.0 Q 470.0 400.0 478.83477594146166 437.96482717278633 Q 443.64428613011137 454.7282037727621 421.8221430650557 427.36410188638104 Z" fill="white" stroke="black" stroke-width="2"/>
  <path id="area_layer1_shape1" d="M 421.8221430650557 427.36410188638104 Q 443.64428613011137 454.7282037727621 419.4705817211775 485.3061923159096 Q 384.423534623058 468.24495385272763 392.211767311529 434.12247692636384 Z" fill="white" stroke="black" stroke-width="2"/>
  <path id="area_layer1_shape2" d="M 392.211767311529 434.12247692636384 Q 384.423534623058 468.24495385272763 345.44464233736085 468.41025471595265 Q 336.9321792468307 430.3718617382291 368.4660896234153 415.18593086911454 Z" fill="white" stroke="black" stroke-width="2"/>
  <path id="area_layer1_shape3" d="M 368.4660896234153 415.18593086911454 Q 336.9321792468307 430.3718617382291 312.5 400.0 Q 336.93217924683063 369.6281382617709 368.4660896234153 384.81406913088546 Z" fill="white" stroke="black" stroke-width="2"/>
  <path id="area_layer1_shape4" d="M 368.4660896234153 384.81406913088546 Q 336.93217924683063 369.6281382617709 345.4446423373608 331.5897452840474 Q 384.423534623058 331.75504614727237 392.211767311529 365.87752307363616 Z" fill="white" stroke="black" stroke-width="2"/>
  <path id="area_layer1_shape5" d="M 392.211767311529 365.87752307363616 Q 384.423534623058 331.75504614727237 419.4705817211775 314.6938076840904 Q 443.64428613011137 345.2717962272379 421.8221430650557 372.63589811361896 Z" fill="white" stroke="black" stroke-width="2"/>
  <path id="area_layer1_shape6" d="M 421.8221430650557 372.63589811361896 Q 443.64428613011137 345.2717962272379 478.83477594146166 362.0351728272136 Q 470.0 400.0 435.0 400.0 Z" fill="white" stroke="black" stroke-width="2"/>
  <path id="area_center" d="M 400.0 380.0 A 20 20 0 1 0 400.0 420.0 A 20 20 0 1 0 400.0 380.0 Z" fill="white" stroke="black" stroke-width="2"/>
</g>
</svg>
