<svg xmlns="http://www.w3.org/2000/svg" viewBox="0 0 400 400">
  <!-- Coloring Book Style: Fill Areas Layer -->
  <g id="fill-areas">
    <!-- Left Upper Wing -->
    <path id="area_wing_left_upper" d="M 100 150 Q 50 100 30 150 Q 20 200 50 220 Q 80 240 120 200 Q 140 180 120 160 Z" fill="#FFFFFF"/>
    <path id="area_wing_left_upper_section_1" d="M 100 150 Q 80 140 60 150 Q 50 160 50 180 Q 50 200 70 220 Q 90 240 120 200 Q 140 180 120 160 Q 110 150 100 150 Z" fill="#FFFFFF"/>
    <path id="area_wing_left_upper_section_2" d="M 60 150 Q 50 160 50 180 Q 50 200 70 220 Q 80 230 90 220 Q 100 210 100 190 Q 100 170 80 160 Q 70 155 60 150 Z" fill="#FFFFFF"/>
    
    <!-- Left Lower Wing -->
    <path id="area_wing_left_lower" d="M 100 200 Q 60 240 40 280 Q 30 300 50 310 Q 70 320 100 280 Q 120 250 110 220 Z" fill="#FFFFFF"/>
    <path id="area_wing_left_lower_section_1" d="M 100 200 Q 80 220 60 240 Q 50 260 50 280 Q 50 300 70 310 Q 90 320 110 300 Q 120 280 110 260 Q 110 240 110 220 Q 105 210 100 200 Z" fill="#FFFFFF"/>
    
    <!-- Right Upper Wing -->
    <path id="area_wing_right_upper" d="M 300 150 Q 350 100 370 150 Q 380 200 350 220 Q 320 240 280 200 Q 260 180 280 160 Z" fill="#FFFFFF"/>
    <path id="area_wing_right_upper_section_1" d="M 300 150 Q 320 140 340 150 Q 350 160 350 180 Q 350 200 330 220 Q 310 240 280 200 Q 260 180 280 160 Q 290 150 300 150 Z" fill="#FFFFFF"/>
    <path id="area_wing_right_upper_section_2" d="M 340 150 Q 350 160 350 180 Q 350 200 330 220 Q 320 230 310 220 Q 300 210 300 190 Q 300 170 320 160 Q 330 155 340 150 Z" fill="#FFFFFF"/>
    
    <!-- Right Lower Wing -->
    <path id="area_wing_right_lower" d="M 300 200 Q 340 240 360 280 Q 370 300 350 310 Q 330 320 300 280 Q 280 250 290 220 Z" fill="#FFFFFF"/>
    <path id="area_wing_right_lower_section_1" d="M 300 200 Q 320 220 340 240 Q 350 260 350 280 Q 350 300 330 310 Q 310 320 290 300 Q 280 280 290 260 Q 290 240 290 220 Q 295 210 300 200 Z" fill="#FFFFFF"/>
    
    <!-- Body Segments -->
    <path id="area_body_segment_1" d="M 200 120 Q 195 125 200 130 Q 205 125 200 120 Z" fill="#FFFFFF"/>
    <path id="area_body_segment_2" d="M 200 130 Q 195 135 200 140 Q 205 135 200 130 Z" fill="#FFFFFF"/>
    <path id="area_body_segment_3" d="M 200 140 Q 195 145 200 150 Q 205 145 200 140 Z" fill="#FFFFFF"/>
    <path id="area_body_segment_4" d="M 200 150 Q 195 155 200 160 Q 205 155 200 150 Z" fill="#FFFFFF"/>
    <path id="area_body_segment_5" d="M 200 160 Q 195 165 200 170 Q 205 165 200 160 Z" fill="#FFFFFF"/>
    <path id="area_body_segment_6" d="M 200 170 Q 195 175 200 180 Q 205 175 200 170 Z" fill="#FFFFFF"/>
    <path id="area_body_segment_7" d="M 200 180 Q 195 185 200 190 Q 205 185 200 180 Z" fill="#FFFFFF"/>
    <path id="area_body_segment_8" d="M 200 190 Q 195 195 200 200 Q 205 195 200 190 Z" fill="#FFFFFF"/>
    <path id="area_body_segment_9" d="M 200 200 Q 195 205 200 210 Q 205 205 200 200 Z" fill="#FFFFFF"/>
    <path id="area_body_segment_10" d="M 200 210 Q 195 215 200 220 Q 205 215 200 210 Z" fill="#FFFFFF"/>
    <path id="area_body_segment_11" d="M 200 220 Q 195 225 200 230 Q 205 225 200 220 Z" fill="#FFFFFF"/>
    <path id="area_body_segment_12" d="M 200 230 Q 195 235 200 240 Q 205 235 200 230 Z" fill="#FFFFFF"/>
    <path id="area_body_segment_13" d="M 200 240 Q 195 245 200 250 Q 205 245 200 240 Z" fill="#FFFFFF"/>
    <path id="area_body_segment_14" d="M 200 250 Q 195 255 200 260 Q 205 255 200 250 Z" fill="#FFFFFF"/>
    <path id="area_body_segment_15" d="M 200 260 Q 195 265 200 270 Q 205 265 200 260 Z" fill="#FFFFFF"/>
    <path id="area_body_segment_16" d="M 200 270 Q 195 275 200 280 Q 205 275 200 270 Z" fill="#FFFFFF"/>
    
    <!-- Head -->
    <path id="area_head" d="M 200 120 Q 195 110 200 100 Q 205 110 200 120 Z" fill="#FFFFFF"/>
  </g>
  
  <!-- Coloring Book Style: Line Art Layer -->
  <g id="line-art">
    <!-- Left Upper Wing Outline -->
    <path d="M 100 150 Q 50 100 30 150 Q 20 200 50 220 Q 80 240 120 200 Q 140 180 120 160 Z" fill="none" stroke="black" stroke-width="2" stroke-linecap="round" stroke-linejoin="round"/>
    <path d="M 100 150 Q 80 140 60 150 Q 50 160 50 180 Q 50 200 70 220 Q 90 240 120 200" fill="none" stroke="black" stroke-width="1" stroke-linecap="round" stroke-linejoin="round"/>
    
    <!-- Left Lower Wing Outline -->
    <path d="M 100 200 Q 60 240 40 280 Q 30 300 50 310 Q 70 320 100 280 Q 120 250 110 220 Z" fill="none" stroke="black" stroke-width="2" stroke-linecap="round" stroke-linejoin="round"/>
    <path d="M 100 200 Q 80 220 60 240 Q 50 260 50 280 Q 50 300 70 310" fill="none" stroke="black" stroke-width="1" stroke-linecap="round" stroke-linejoin="round"/>
    
    <!-- Right Upper Wing Outline -->
    <path d="M 300 150 Q 350 100 370 150 Q 380 200 350 220 Q 320 240 280 200 Q 260 180 280 160 Z" fill="none" stroke="black" stroke-width="2" stroke-linecap="round" stroke-linejoin="round"/>
    <path d="M 300 150 Q 320 140 340 150 Q 350 160 350 180 Q 350 200 330 220 Q 310 240 280 200" fill="none" stroke="black" stroke-width="1" stroke-linecap="round" stroke-linejoin="round"/>
    
    <!-- Right Lower Wing Outline -->
    <path d="M 300 200 Q 340 240 360 280 Q 370 300 350 310 Q 330 320 300 280 Q 280 250 290 220 Z" fill="none" stroke="black" stroke-width="2" stroke-linecap="round" stroke-linejoin="round"/>
    <path d="M 300 200 Q 320 220 340 240 Q 350 260 350 280 Q 350 300 330 310" fill="none" stroke="black" stroke-width="1" stroke-linecap="round" stroke-linejoin="round"/>
    
    <!-- Body -->
    <path d="M 200 120 Q 200 140 200 160 Q 200 180 200 200 Q 200 220 200 240 Q 200 260 200 280" fill="none" stroke="black" stroke-width="3" stroke-linecap="round" stroke-linejoin="round"/>
    <path d="M 190 140 Q 200 150 210 140" fill="none" stroke="black" stroke-width="1.5" stroke-linecap="round" stroke-linejoin="round"/>
    <path d="M 190 180 Q 200 190 210 180" fill="none" stroke="black" stroke-width="1.5" stroke-linecap="round" stroke-linejoin="round"/>
    <path d="M 190 220 Q 200 230 210 220" fill="none" stroke="black" stroke-width="1.5" stroke-linecap="round" stroke-linejoin="round"/>
    <path d="M 190 260 Q 200 270 210 260" fill="none" stroke="black" stroke-width="1.5" stroke-linecap="round" stroke-linejoin="round"/>
    
    <!-- Head -->
    <path d="M 200 120 Q 195 110 200 100 Q 205 110 200 120 Z" fill="none" stroke="black" stroke-width="2" stroke-linecap="round" stroke-linejoin="round"/>
    
    <!-- Antenna -->
    <path d="M 195 100 Q 190 90 185 85" fill="none" stroke="black" stroke-width="1.5" stroke-linecap="round" stroke-linejoin="round"/>
    <path d="M 185 85 Q 183 83 185 81 Q 187 83 185 85" fill="none" stroke="black" stroke-width="1.5" stroke-linecap="round" stroke-linejoin="round"/>
    <path d="M 205 100 Q 210 90 215 85" fill="none" stroke="black" stroke-width="1.5" stroke-linecap="round" stroke-linejoin="round"/>
    <path d="M 215 85 Q 217 83 215 81 Q 213 83 215 85" fill="none" stroke="black" stroke-width="1.5" stroke-linecap="round" stroke-linejoin="round"/>
  </g>
</svg>
