<svg xmlns="http://www.w3.org/2000/svg" viewBox="0 0 300 300">
  <!-- Ultra Detailed Cat - Every small detail is a separate fillable path -->
  
  <!-- Head - Main Shape -->
  <path id="head" d="M 150 80 Q 180 70 200 85 Q 210 100 200 115 Q 190 130 150 130 Q 110 130 100 115 Q 90 100 100 85 Q 120 70 150 80 Z" fill="none" stroke="black" stroke-width="2"/>
  
  <!-- Head - Sections -->
  <path id="head_section_1" d="M 150 80 Q 170 75 190 85 Q 200 95 200 105 Q 200 115 190 125 Q 180 130 170 128 Q 160 126 150 125 Q 140 124 130 125 Q 120 126 110 128 Q 100 130 100 120 Q 100 110 110 100 Q 120 90 130 85 Q 140 80 150 80" fill="none" stroke="black" stroke-width="1.5"/>
  <path id="head_section_2" d="M 150 80 Q 140 75 130 80 Q 120 85 110 95 Q 105 100 100 105 Q 100 110 105 115 Q 110 120 120 125 Q 130 128 140 127 Q 150 126 150 80" fill="none" stroke="black" stroke-width="1.5"/>
  
  <!-- Ear Left - Outer -->
  <path id="ear_left_outer" d="M 120 90 Q 115 85 110 75 Q 105 65 110 60 Q 115 55 120 60 Q 125 65 128 70 Q 130 75 130 80 Q 128 85 125 88 Q 122 90 120 90 Z" fill="none" stroke="black" stroke-width="2"/>
  <path id="ear_left_outer_top" d="M 120 90 Q 117 87 115 82" fill="none" stroke="black" stroke-width="1.5"/>
  <path id="ear_left_outer_left" d="M 115 82 Q 112 78 110 75" fill="none" stroke="black" stroke-width="1.5"/>
  <path id="ear_left_outer_tip" d="M 110 75 Q 107 70 110 65 Q 113 70 110 75" fill="none" stroke="black" stroke-width="1.5"/>
  
  <!-- Ear Left - Inner -->
  <path id="ear_left_inner" d="M 120 85 Q 118 82 116 78 Q 114 74 115 70 Q 116 66 118 68 Q 120 70 122 72 Q 124 74 125 78 Q 125 82 123 84 Q 121 85 120 85 Z" fill="none" stroke="black" stroke-width="1.5"/>
  <path id="ear_left_inner_dot" d="M 118 75 Q 117 74 116 73 Q 117 74 118 75 Z" fill="none" stroke="black" stroke-width="0.8"/>
  
  <!-- Ear Right - Outer -->
  <path id="ear_right_outer" d="M 180 90 Q 185 85 190 75 Q 195 65 190 60 Q 185 55 180 60 Q 175 65 172 70 Q 170 75 170 80 Q 172 85 175 88 Q 178 90 180 90 Z" fill="none" stroke="black" stroke-width="2"/>
  <path id="ear_right_outer_top" d="M 180 90 Q 183 87 185 82" fill="none" stroke="black" stroke-width="1.5"/>
  <path id="ear_right_outer_right" d="M 185 82 Q 188 78 190 75" fill="none" stroke="black" stroke-width="1.5"/>
  <path id="ear_right_outer_tip" d="M 190 75 Q 193 70 190 65 Q 187 70 190 75" fill="none" stroke="black" stroke-width="1.5"/>
  
  <!-- Ear Right - Inner -->
  <path id="ear_right_inner" d="M 180 85 Q 182 82 184 78 Q 186 74 185 70 Q 184 66 182 68 Q 180 70 178 72 Q 176 74 175 78 Q 175 82 177 84 Q 179 85 180 85 Z" fill="none" stroke="black" stroke-width="1.5"/>
  <path id="ear_right_inner_dot" d="M 182 75 Q 183 74 184 73 Q 183 74 182 75 Z" fill="none" stroke="black" stroke-width="0.8"/>
  
  <!-- Eye Left - Outer -->
  <path id="eye_left_outer" d="M 130 100 Q 135 95 140 100 Q 135 105 130 100 Z" fill="none" stroke="black" stroke-width="2"/>
  <path id="eye_left_upper" d="M 130 100 Q 133 98 136 99 Q 138 100 140 100" fill="none" stroke="black" stroke-width="1.5"/>
  <path id="eye_left_lower" d="M 130 100 Q 133 102 136 101 Q 138 100 140 100" fill="none" stroke="black" stroke-width="1.5"/>
  
  <!-- Eye Left - Pupil -->
  <path id="pupil_left_outer" d="M 135 100 Q 137 98 139 100 Q 137 102 135 100 Z" fill="none" stroke="black" stroke-width="1.5"/>
  <path id="pupil_left_inner" d="M 136 100 Q 137 99 138 100 Q 137 101 136 100 Z" fill="none" stroke="black" stroke-width="1"/>
  <path id="pupil_left_center" d="M 137 100 Q 136.5 99.5 137 99 Q 137.5 99.5 137 100 Z" fill="none" stroke="black" stroke-width="0.8"/>
  
  <!-- Eye Left - Highlights -->
  <path id="eye_left_highlight_1" d="M 136 99 Q 136.5 98.5 137 99" fill="none" stroke="black" stroke-width="0.6"/>
  <path id="eye_left_highlight_2" d="M 133 99 Q 133.5 98.5 134 99" fill="none" stroke="black" stroke-width="0.6"/>
  
  <!-- Eye Right - Outer -->
  <path id="eye_right_outer" d="M 160 100 Q 165 95 170 100 Q 165 105 160 100 Z" fill="none" stroke="black" stroke-width="2"/>
  <path id="eye_right_upper" d="M 160 100 Q 163 98 166 99 Q 168 100 170 100" fill="none" stroke="black" stroke-width="1.5"/>
  <path id="eye_right_lower" d="M 160 100 Q 163 102 166 101 Q 168 100 170 100" fill="none" stroke="black" stroke-width="1.5"/>
  
  <!-- Eye Right - Pupil -->
  <path id="pupil_right_outer" d="M 165 100 Q 167 98 169 100 Q 167 102 165 100 Z" fill="none" stroke="black" stroke-width="1.5"/>
  <path id="pupil_right_inner" d="M 166 100 Q 167 99 168 100 Q 167 101 166 100 Z" fill="none" stroke="black" stroke-width="1"/>
  <path id="pupil_right_center" d="M 167 100 Q 166.5 99.5 167 99 Q 167.5 99.5 167 100 Z" fill="none" stroke="black" stroke-width="0.8"/>
  
  <!-- Eye Right - Highlights -->
  <path id="eye_right_highlight_1" d="M 166 99 Q 166.5 98.5 167 99" fill="none" stroke="black" stroke-width="0.6"/>
  <path id="eye_right_highlight_2" d="M 163 99 Q 163.5 98.5 164 99" fill="none" stroke="black" stroke-width="0.6"/>
  
  <!-- Nose -->
  <path id="nose_outer" d="M 150 110 Q 155 115 150 120 Q 145 115 150 110 Z" fill="none" stroke="black" stroke-width="2"/>
  <path id="nose_left" d="M 150 110 Q 148 112 147 115" fill="none" stroke="black" stroke-width="1.5"/>
  <path id="nose_right" d="M 150 110 Q 152 112 153 115" fill="none" stroke="black" stroke-width="1.5"/>
  <path id="nose_bottom" d="M 147 115 Q 148.5 117 150 120 Q 151.5 117 153 115" fill="none" stroke="black" stroke-width="1.5"/>
  <path id="nose_center" d="M 150 115 Q 149.5 114 150 113 Q 150.5 114 150 115 Z" fill="none" stroke="black" stroke-width="0.8"/>
  
  <!-- Mouth -->
  <path id="mouth_left" d="M 150 120 Q 145 122 140 125 Q 138 127 135 125 Q 137 123 140 122 Q 143 121 145 120 Q 147 120 150 120" fill="none" stroke="black" stroke-width="2"/>
  <path id="mouth_left_line" d="M 150 120 Q 145 122 140 125" fill="none" stroke="black" stroke-width="1.5"/>
  <path id="mouth_left_dot" d="M 142 123 Q 141.5 122.5 142 122 Q 142.5 122.5 142 123 Z" fill="none" stroke="black" stroke-width="0.8"/>
  
  <path id="mouth_right" d="M 150 120 Q 155 122 160 125 Q 162 127 165 125 Q 163 123 160 122 Q 157 121 155 120 Q 153 120 150 120" fill="none" stroke="black" stroke-width="2"/>
  <path id="mouth_right_line" d="M 150 120 Q 155 122 160 125" fill="none" stroke="black" stroke-width="1.5"/>
  <path id="mouth_right_dot" d="M 158 123 Q 158.5 122.5 158 122 Q 157.5 122.5 158 123 Z" fill="none" stroke="black" stroke-width="0.8"/>
  
  <!-- Whiskers Left -->
  <path id="whisker_left_1" d="M 100 105 Q 90 105 85 105 Q 80 105 80 105" fill="none" stroke="black" stroke-width="1.5"/>
  <path id="whisker_left_1_tip" d="M 80 105 Q 78 104 76 105 Q 78 106 80 105" fill="none" stroke="black" stroke-width="1"/>
  <path id="whisker_left_1_dot" d="M 95 105 Q 94.5 104.5 95 104 Q 95.5 104.5 95 105 Z" fill="none" stroke="black" stroke-width="0.6"/>
  
  <path id="whisker_left_2" d="M 100 110 Q 88 110 75 110 Q 70 110 70 110" fill="none" stroke="black" stroke-width="1.5"/>
  <path id="whisker_left_2_tip" d="M 70 110 Q 68 109 66 110 Q 68 111 70 110" fill="none" stroke="black" stroke-width="1"/>
  <path id="whisker_left_2_dot" d="M 92 110 Q 91.5 109.5 92 109 Q 92.5 109.5 92 110 Z" fill="none" stroke="black" stroke-width="0.6"/>
  
  <path id="whisker_left_3" d="M 100 115 Q 90 115 80 115 Q 75 115 75 115" fill="none" stroke="black" stroke-width="1.5"/>
  <path id="whisker_left_3_tip" d="M 75 115 Q 73 114 71 115 Q 73 116 75 115" fill="none" stroke="black" stroke-width="1"/>
  <path id="whisker_left_3_dot" d="M 95 115 Q 94.5 114.5 95 114 Q 95.5 114.5 95 115 Z" fill="none" stroke="black" stroke-width="0.6"/>
  
  <!-- Whiskers Right -->
  <path id="whisker_right_1" d="M 200 105 Q 210 105 215 105 Q 220 105 220 105" fill="none" stroke="black" stroke-width="1.5"/>
  <path id="whisker_right_1_tip" d="M 220 105 Q 222 104 224 105 Q 222 106 220 105" fill="none" stroke="black" stroke-width="1"/>
  <path id="whisker_right_1_dot" d="M 205 105 Q 205.5 104.5 205 104 Q 204.5 104.5 205 105 Z" fill="none" stroke="black" stroke-width="0.6"/>
  
  <path id="whisker_right_2" d="M 200 110 Q 212 110 225 110 Q 230 110 230 110" fill="none" stroke="black" stroke-width="1.5"/>
  <path id="whisker_right_2_tip" d="M 230 110 Q 232 109 234 110 Q 232 111 230 110" fill="none" stroke="black" stroke-width="1"/>
  <path id="whisker_right_2_dot" d="M 208 110 Q 208.5 109.5 208 109 Q 207.5 109.5 208 110 Z" fill="none" stroke="black" stroke-width="0.6"/>
  
  <path id="whisker_right_3" d="M 200 115 Q 210 115 220 115 Q 225 115 225 115" fill="none" stroke="black" stroke-width="1.5"/>
  <path id="whisker_right_3_tip" d="M 225 115 Q 227 114 229 115 Q 227 116 225 115" fill="none" stroke="black" stroke-width="1"/>
  <path id="whisker_right_3_dot" d="M 205 115 Q 205.5 114.5 205 114 Q 204.5 114.5 205 115 Z" fill="none" stroke="black" stroke-width="0.6"/>
  
  <!-- Body -->
  <path id="body_main" d="M 150 130 Q 140 150 130 180 Q 125 200 130 220 Q 135 240 150 250 Q 165 260 180 255 Q 195 250 200 240 Q 205 230 200 220 Q 195 210 190 200 Q 185 190 180 180 Q 175 170 170 160 Q 165 150 160 145 Q 155 140 150 130 Z" fill="none" stroke="black" stroke-width="2.5"/>
  
  <!-- Body - Sections -->
  <path id="body_section_1" d="M 150 130 Q 145 140 140 150 Q 138 155 135 160" fill="none" stroke="black" stroke-width="1.5"/>
  <path id="body_section_2" d="M 135 160 Q 132 170 130 180 Q 128 190 127 200" fill="none" stroke="black" stroke-width="1.5"/>
  <path id="body_section_3" d="M 127 200 Q 128 210 130 220 Q 132 230 135 235" fill="none" stroke="black" stroke-width="1.5"/>
  <path id="body_section_4" d="M 135 235 Q 142 245 150 250 Q 158 255 165 252" fill="none" stroke="black" stroke-width="1.5"/>
  <path id="body_section_5" d="M 165 252 Q 172 250 180 255 Q 188 260 195 255" fill="none" stroke="black" stroke-width="1.5"/>
  <path id="body_section_6" d="M 195 255 Q 198 250 200 240 Q 202 230 200 220" fill="none" stroke="black" stroke-width="1.5"/>
  <path id="body_section_7" d="M 200 220 Q 198 210 195 200 Q 192 190 190 180" fill="none" stroke="black" stroke-width="1.5"/>
  <path id="body_section_8" d="M 190 180 Q 185 170 180 160 Q 175 150 170 145 Q 165 140 160 135" fill="none" stroke="black" stroke-width="1.5"/>
  
  <!-- Chest -->
  <path id="chest" d="M 150 150 Q 145 160 140 170 Q 138 175 140 180 Q 142 185 145 188 Q 148 190 150 188 Q 152 190 155 188 Q 158 185 160 180 Q 162 175 160 170 Q 155 160 150 150 Z" fill="none" stroke="black" stroke-width="2"/>
  <path id="chest_pattern_1" d="M 145 165 Q 147 163 149 165 Q 147 167 145 165 Z" fill="none" stroke="black" stroke-width="1"/>
  <path id="chest_pattern_2" d="M 151 165 Q 153 163 155 165 Q 153 167 151 165 Z" fill="none" stroke="black" stroke-width="1"/>
  <path id="chest_pattern_3" d="M 148 175 Q 149 173 150 175 Q 149 177 148 175 Z" fill="none" stroke="black" stroke-width="1"/>
  
  <!-- Leg Front Left -->
  <path id="leg_front_left_upper" d="M 130 220 Q 125 230 120 240 Q 118 245 120 250" fill="none" stroke="black" stroke-width="2.5"/>
  <path id="leg_front_left_lower" d="M 120 250 Q 118 255 120 260 Q 122 265 125 268" fill="none" stroke="black" stroke-width="2.5"/>
  <path id="paw_front_left" d="M 125 268 Q 123 270 120 272 Q 118 274 120 276 Q 122 278 125 276 Q 128 274 130 272 Q 128 270 125 268 Z" fill="none" stroke="black" stroke-width="2"/>
  <path id="paw_front_left_toe_1" d="M 120 272 Q 118 274 116 272" fill="none" stroke="black" stroke-width="1.5"/>
  <path id="paw_front_left_toe_2" d="M 122 274 Q 120 276 118 274" fill="none" stroke="black" stroke-width="1.5"/>
  <path id="paw_front_left_toe_3" d="M 125 276 Q 123 278 121 276" fill="none" stroke="black" stroke-width="1.5"/>
  
  <!-- Leg Front Right -->
  <path id="leg_front_right_upper" d="M 170 220 Q 175 230 180 240 Q 182 245 180 250" fill="none" stroke="black" stroke-width="2.5"/>
  <path id="leg_front_right_lower" d="M 180 250 Q 182 255 180 260 Q 178 265 175 268" fill="none" stroke="black" stroke-width="2.5"/>
  <path id="paw_front_right" d="M 175 268 Q 177 270 180 272 Q 182 274 180 276 Q 178 278 175 276 Q 172 274 170 272 Q 172 270 175 268 Z" fill="none" stroke="black" stroke-width="2"/>
  <path id="paw_front_right_toe_1" d="M 180 272 Q 182 274 184 272" fill="none" stroke="black" stroke-width="1.5"/>
  <path id="paw_front_right_toe_2" d="M 178 274 Q 180 276 182 274" fill="none" stroke="black" stroke-width="1.5"/>
  <path id="paw_front_right_toe_3" d="M 175 276 Q 177 278 179 276" fill="none" stroke="black" stroke-width="1.5"/>
  
  <!-- Leg Back Left -->
  <path id="leg_back_left_upper" d="M 140 240 Q 135 250 130 260 Q 128 265 130 270" fill="none" stroke="black" stroke-width="2.5"/>
  <path id="leg_back_left_lower" d="M 130 270 Q 128 275 130 280 Q 132 285 135 288" fill="none" stroke="black" stroke-width="2.5"/>
  <path id="paw_back_left" d="M 135 288 Q 133 290 130 292 Q 128 294 130 296 Q 132 298 135 296 Q 138 294 140 292 Q 138 290 135 288 Z" fill="none" stroke="black" stroke-width="2"/>
  <path id="paw_back_left_toe_1" d="M 130 292 Q 128 294 126 292" fill="none" stroke="black" stroke-width="1.5"/>
  <path id="paw_back_left_toe_2" d="M 132 294 Q 130 296 128 294" fill="none" stroke="black" stroke-width="1.5"/>
  <path id="paw_back_left_toe_3" d="M 135 296 Q 133 298 131 296" fill="none" stroke="black" stroke-width="1.5"/>
  
  <!-- Leg Back Right -->
  <path id="leg_back_right_upper" d="M 160 240 Q 165 250 170 260 Q 172 265 170 270" fill="none" stroke="black" stroke-width="2.5"/>
  <path id="leg_back_right_lower" d="M 170 270 Q 172 275 170 280 Q 168 285 165 288" fill="none" stroke="black" stroke-width="2.5"/>
  <path id="paw_back_right" d="M 165 288 Q 167 290 170 292 Q 172 294 170 296 Q 168 298 165 296 Q 162 294 160 292 Q 162 290 165 288 Z" fill="none" stroke="black" stroke-width="2"/>
  <path id="paw_back_right_toe_1" d="M 170 292 Q 172 294 174 292" fill="none" stroke="black" stroke-width="1.5"/>
  <path id="paw_back_right_toe_2" d="M 168 294 Q 170 296 172 294" fill="none" stroke="black" stroke-width="1.5"/>
  <path id="paw_back_right_toe_3" d="M 165 296 Q 167 298 169 296" fill="none" stroke="black" stroke-width="1.5"/>
  
  <!-- Tail -->
  <path id="tail_main" d="M 200 240 Q 210 250 220 260 Q 230 270 235 280 Q 240 290 235 300 Q 230 310 220 305 Q 210 300 205 290 Q 200 280 195 270 Q 190 260 190 250 Q 192 245 195 242 Q 198 240 200 240" fill="none" stroke="black" stroke-width="2.5"/>
  
  <!-- Tail - Sections -->
  <path id="tail_section_1" d="M 200 240 Q 205 245 210 250 Q 212 252 214 255" fill="none" stroke="black" stroke-width="1.5"/>
  <path id="tail_section_2" d="M 214 255 Q 218 260 220 265 Q 222 268 224 270" fill="none" stroke="black" stroke-width="1.5"/>
  <path id="tail_section_3" d="M 224 270 Q 228 275 230 280 Q 232 285 233 290" fill="none" stroke="black" stroke-width="1.5"/>
  <path id="tail_section_4" d="M 233 290 Q 236 295 235 300 Q 234 305 232 308" fill="none" stroke="black" stroke-width="1.5"/>
  <path id="tail_section_5" d="M 232 308 Q 228 310 225 308 Q 222 306 220 303" fill="none" stroke="black" stroke-width="1.5"/>
  <path id="tail_section_6" d="M 220 303 Q 215 300 210 295 Q 205 290 202 285" fill="none" stroke="black" stroke-width="1.5"/>
  <path id="tail_section_7" d="M 202 285 Q 198 280 195 275 Q 192 270 190 265" fill="none" stroke="black" stroke-width="1.5"/>
  <path id="tail_section_8" d="M 190 265 Q 190 260 190 255 Q 190 250 192 247" fill="none" stroke="black" stroke-width="1.5"/>
  
  <!-- Tail - Tip -->
  <path id="tail_tip" d="M 235 300 Q 237 302 235 304 Q 233 302 235 300" fill="none" stroke="black" stroke-width="2"/>
  <path id="tail_tip_dot" d="M 235 302 Q 234.5 301.5 235 301 Q 235.5 301.5 235 302 Z" fill="none" stroke="black" stroke-width="0.8"/>
  
  <!-- Decorative Spots on Body -->
  <path id="body_spot_1" d="M 155 160 Q 156 159 157 160 Q 156 161 155 160 Z" fill="none" stroke="black" stroke-width="0.8"/>
  <path id="body_spot_2" d="M 145 170 Q 146 169 147 170 Q 146 171 145 170 Z" fill="none" stroke="black" stroke-width="0.8"/>
  <path id="body_spot_3" d="M 155 180 Q 156 179 157 180 Q 156 181 155 180 Z" fill="none" stroke="black" stroke-width="0.8"/>
  <path id="body_spot_4" d="M 165 190 Q 166 189 167 190 Q 166 191 165 190 Z" fill="none" stroke="black" stroke-width="0.8"/>
  <path id="body_spot_5" d="M 175 200 Q 176 199 177 200 Q 176 201 175 200 Z" fill="none" stroke="black" stroke-width="0.8"/>
  
  <!-- Head Patterns -->
  <path id="head_pattern_1" d="M 140 95 Q 141 94 142 95 Q 141 96 140 95 Z" fill="none" stroke="black" stroke-width="0.6"/>
  <path id="head_pattern_2" d="M 160 95 Q 161 94 162 95 Q 161 96 160 95 Z" fill="none" stroke="black" stroke-width="0.6"/>
  <path id="head_pattern_3" d="M 150 105 Q 151 104 152 105 Q 151 106 150 105 Z" fill="none" stroke="black" stroke-width="0.6"/>
</svg>
