<svg xmlns="http://www.w3.org/2000/svg" viewBox="0 0 300 300">
  <!-- Coloring Book Style: Fill Areas Layer -->
  <g id="fill-areas">
    <!-- Head -->
    <path id="area_head" d="M 150 80 Q 180 70 200 85 Q 210 100 200 115 Q 190 130 150 130 Q 110 130 100 115 Q 90 100 100 85 Q 120 70 150 80 Z" fill="#FFFFFF"/>
    
    <!-- Ear Left -->
    <path id="area_ear_left" d="M 120 90 Q 115 85 110 75 Q 105 65 110 60 Q 115 55 120 60 Q 125 65 128 70 Q 130 75 130 80 Q 128 85 125 88 Q 122 90 120 90 Z" fill="#FFFFFF"/>
    <path id="area_ear_left_inner" d="M 120 85 Q 118 82 116 78 Q 114 74 115 70 Q 116 66 118 68 Q 120 70 122 72 Q 124 74 125 78 Q 125 82 123 84 Q 121 85 120 85 Z" fill="#FFFFFF"/>
    
    <!-- Ear Right -->
    <path id="area_ear_right" d="M 180 90 Q 185 85 190 75 Q 195 65 190 60 Q 185 55 180 60 Q 175 65 172 70 Q 170 75 170 80 Q 172 85 175 88 Q 178 90 180 90 Z" fill="#FFFFFF"/>
    <path id="area_ear_right_inner" d="M 180 85 Q 182 82 184 78 Q 186 74 185 70 Q 184 66 182 68 Q 180 70 178 72 Q 176 74 175 78 Q 175 82 177 84 Q 179 85 180 85 Z" fill="#FFFFFF"/>
    
    <!-- Eye Left -->
    <path id="area_eye_left" d="M 130 100 Q 135 95 140 100 Q 135 105 130 100 Z" fill="#FFFFFF"/>
    <path id="area_pupil_left" d="M 135 100 Q 137 98 139 100 Q 137 102 135 100 Z" fill="#FFFFFF"/>
    
    <!-- Eye Right -->
    <path id="area_eye_right" d="M 160 100 Q 165 95 170 100 Q 165 105 160 100 Z" fill="#FFFFFF"/>
    <path id="area_pupil_right" d="M 165 100 Q 167 98 169 100 Q 167 102 165 100 Z" fill="#FFFFFF"/>
    
    <!-- Nose -->
    <path id="area_nose" d="M 150 110 Q 155 115 150 120 Q 145 115 150 110 Z" fill="#FFFFFF"/>
    
    <!-- Body -->
    <path id="area_body" d="M 150 130 Q 140 150 130 180 Q 125 200 130 220 Q 135 240 150 250 Q 165 260 180 255 Q 195 250 200 240 Q 205 230 200 220 Q 195 210 190 200 Q 185 190 180 180 Q 175 170 170 160 Q 165 150 160 145 Q 155 140 150 130 Z" fill="#FFFFFF"/>
    
    <!-- Chest -->
    <path id="area_chest" d="M 150 150 Q 145 160 140 170 Q 138 175 140 180 Q 142 185 145 188 Q 148 190 150 188 Q 152 190 155 188 Q 158 185 160 180 Q 162 175 160 170 Q 155 160 150 150 Z" fill="#FFFFFF"/>
    
    <!-- Leg Front Left -->
    <path id="area_leg_front_left" d="M 130 220 Q 125 230 120 240 Q 118 245 120 250 Q 122 265 125 268 Q 123 270 120 272 Q 118 274 120 276 Q 122 278 125 276 Q 128 274 130 272 Q 128 270 125 268 Q 122 265 120 260 Q 120 250 130 220 Z" fill="#FFFFFF"/>
    
    <!-- Leg Front Right -->
    <path id="area_leg_front_right" d="M 170 220 Q 175 230 180 240 Q 182 245 180 250 Q 178 265 175 268 Q 177 270 180 272 Q 182 274 180 276 Q 178 278 175 276 Q 172 274 170 272 Q 172 270 175 268 Q 178 265 180 260 Q 180 250 170 220 Z" fill="#FFFFFF"/>
    
    <!-- Leg Back Left -->
    <path id="area_leg_back_left" d="M 140 240 Q 135 250 130 260 Q 128 265 130 270 Q 132 285 135 288 Q 133 290 130 292 Q 128 294 130 296 Q 132 298 135 296 Q 138 294 140 292 Q 138 290 135 288 Q 132 285 130 280 Q 130 270 140 240 Z" fill="#FFFFFF"/>
    
    <!-- Leg Back Right -->
    <path id="area_leg_back_right" d="M 160 240 Q 165 250 170 260 Q 172 265 170 270 Q 168 285 165 288 Q 167 290 170 292 Q 172 294 170 296 Q 168 298 165 296 Q 162 294 160 292 Q 162 290 165 288 Q 168 285 170 280 Q 170 270 160 240 Z" fill="#FFFFFF"/>
    
    <!-- Tail -->
    <path id="area_tail" d="M 200 240 Q 210 250 220 260 Q 230 270 235 280 Q 240 290 235 300 Q 230 310 220 305 Q 210 300 205 290 Q 200 280 195 270 Q 190 260 190 250 Q 192 245 195 242 Q 198 240 200 240 Z" fill="#FFFFFF"/>
  </g>
  
  <!-- Coloring Book Style: Line Art Layer -->
  <g id="line-art">
    <!-- Head Outline -->
    <path d="M 150 80 Q 180 70 200 85 Q 210 100 200 115 Q 190 130 150 130 Q 110 130 100 115 Q 90 100 100 85 Q 120 70 150 80 Z" fill="none" stroke="black" stroke-width="2" stroke-linecap="round" stroke-linejoin="round"/>
    
    <!-- Ear Left Outline -->
    <path d="M 120 90 Q 115 85 110 75 Q 105 65 110 60 Q 115 55 120 60 Q 125 65 128 70 Q 130 75 130 80 Q 128 85 125 88 Q 122 90 120 90 Z" fill="none" stroke="black" stroke-width="2" stroke-linecap="round" stroke-linejoin="round"/>
    <path d="M 120 85 Q 118 82 116 78 Q 114 74 115 70 Q 116 66 118 68 Q 120 70 122 72 Q 124 74 125 78 Q 125 82 123 84 Q 121 85 120 85 Z" fill="none" stroke="black" stroke-width="1.5" stroke-linecap="round" stroke-linejoin="round"/>
    
    <!-- Ear Right Outline -->
    <path d="M 180 90 Q 185 85 190 75 Q 195 65 190 60 Q 185 55 180 60 Q 175 65 172 70 Q 170 75 170 80 Q 172 85 175 88 Q 178 90 180 90 Z" fill="none" stroke="black" stroke-width="2" stroke-linecap="round" stroke-linejoin="round"/>
    <path d="M 180 85 Q 182 82 184 78 Q 186 74 185 70 Q 184 66 182 68 Q 180 70 178 72 Q 176 74 175 78 Q 175 82 177 84 Q 179 85 180 85 Z" fill="none" stroke="black" stroke-width="1.5" stroke-linecap="round" stroke-linejoin="round"/>
    
    <!-- Eye Left -->
    <path d="M 130 100 Q 135 95 140 100 Q 135 105 130 100 Z" fill="none" stroke="black" stroke-width="2" stroke-linecap="round" stroke-linejoin="round"/>
    <path d="M 135 100 Q 137 98 139 100 Q 137 102 135 100 Z" fill="none" stroke="black" stroke-width="1.5" stroke-linecap="round" stroke-linejoin="round"/>
    
    <!-- Eye Right -->
    <path d="M 160 100 Q 165 95 170 100 Q 165 105 160 100 Z" fill="none" stroke="black" stroke-width="2" stroke-linecap="round" stroke-linejoin="round"/>
    <path d="M 165 100 Q 167 98 169 100 Q 167 102 165 100 Z" fill="none" stroke="black" stroke-width="1.5" stroke-linecap="round" stroke-linejoin="round"/>
    
    <!-- Nose -->
    <path d="M 150 110 Q 155 115 150 120 Q 145 115 150 110 Z" fill="none" stroke="black" stroke-width="2" stroke-linecap="round" stroke-linejoin="round"/>
    <path d="M 150 110 Q 148 112 147 115" fill="none" stroke="black" stroke-width="1.5" stroke-linecap="round" stroke-linejoin="round"/>
    <path d="M 150 110 Q 152 112 153 115" fill="none" stroke="black" stroke-width="1.5" stroke-linecap="round" stroke-linejoin="round"/>
    <path d="M 147 115 Q 148.5 117 150 120 Q 151.5 117 153 115" fill="none" stroke="black" stroke-width="1.5" stroke-linecap="round" stroke-linejoin="round"/>
    
    <!-- Mouth -->
    <path d="M 150 120 Q 145 122 140 125" fill="none" stroke="black" stroke-width="2" stroke-linecap="round" stroke-linejoin="round"/>
    <path d="M 150 120 Q 155 122 160 125" fill="none" stroke="black" stroke-width="2" stroke-linecap="round" stroke-linejoin="round"/>
    
    <!-- Whiskers -->
    <path d="M 100 105 Q 90 105 80 105" fill="none" stroke="black" stroke-width="1.5" stroke-linecap="round" stroke-linejoin="round"/>
    <path d="M 100 110 Q 88 110 75 110" fill="none" stroke="black" stroke-width="1.5" stroke-linecap="round" stroke-linejoin="round"/>
    <path d="M 100 115 Q 90 115 80 115" fill="none" stroke="black" stroke-width="1.5" stroke-linecap="round" stroke-linejoin="round"/>
    <path d="M 200 105 Q 210 105 220 105" fill="none" stroke="black" stroke-width="1.5" stroke-linecap="round" stroke-linejoin="round"/>
    <path d="M 200 110 Q 212 110 225 110" fill="none" stroke="black" stroke-width="1.5" stroke-linecap="round" stroke-linejoin="round"/>
    <path d="M 200 115 Q 210 115 220 115" fill="none" stroke="black" stroke-width="1.5" stroke-linecap="round" stroke-linejoin="round"/>
    
    <!-- Body Outline -->
    <path d="M 150 130 Q 140 150 130 180 Q 125 200 130 220 Q 135 240 150 250 Q 165 260 180 255 Q 195 250 200 240 Q 205 230 200 220 Q 195 210 190 200 Q 185 190 180 180 Q 175 170 170 160 Q 165 150 160 145 Q 155 140 150 130 Z" fill="none" stroke="black" stroke-width="2.5" stroke-linecap="round" stroke-linejoin="round"/>
    
    <!-- Chest Outline -->
    <path d="M 150 150 Q 145 160 140 170 Q 138 175 140 180 Q 142 185 145 188 Q 148 190 150 188 Q 152 190 155 188 Q 158 185 160 180 Q 162 175 160 170 Q 155 160 150 150 Z" fill="none" stroke="black" stroke-width="2" stroke-linecap="round" stroke-linejoin="round"/>
    
    <!-- Leg Front Left -->
    <path d="M 130 220 Q 125 230 120 240 Q 118 245 120 250 Q 122 265 125 268" fill="none" stroke="black" stroke-width="2.5" stroke-linecap="round" stroke-linejoin="round"/>
    <path d="M 125 268 Q 123 270 120 272 Q 118 274 120 276 Q 122 278 125 276 Q 128 274 130 272" fill="none" stroke="black" stroke-width="2" stroke-linecap="round" stroke-linejoin="round"/>
    <path d="M 120 272 Q 118 274 116 272" fill="none" stroke="black" stroke-width="1.5" stroke-linecap="round" stroke-linejoin="round"/>
    <path d="M 122 274 Q 120 276 118 274" fill="none" stroke="black" stroke-width="1.5" stroke-linecap="round" stroke-linejoin="round"/>
    <path d="M 125 276 Q 123 278 121 276" fill="none" stroke="black" stroke-width="1.5" stroke-linecap="round" stroke-linejoin="round"/>
    
    <!-- Leg Front Right -->
    <path d="M 170 220 Q 175 230 180 240 Q 182 245 180 250 Q 178 265 175 268" fill="none" stroke="black" stroke-width="2.5" stroke-linecap="round" stroke-linejoin="round"/>
    <path d="M 175 268 Q 177 270 180 272 Q 182 274 180 276 Q 178 278 175 276 Q 172 274 170 272" fill="none" stroke="black" stroke-width="2" stroke-linecap="round" stroke-linejoin="round"/>
    <path d="M 180 272 Q 182 274 184 272" fill="none" stroke="black" stroke-width="1.5" stroke-linecap="round" stroke-linejoin="round"/>
    <path d="M 178 274 Q 180 276 182 274" fill="none" stroke="black" stroke-width="1.5" stroke-linecap="round" stroke-linejoin="round"/>
    <path d="M 175 276 Q 177 278 179 276" fill="none" stroke="black" stroke-width="1.5" stroke-linecap="round" stroke-linejoin="round"/>
    
    <!-- Leg Back Left -->
    <path d="M 140 240 Q 135 250 130 260 Q 128 265 130 270 Q 132 285 135 288" fill="none" stroke="black" stroke-width="2.5" stroke-linecap="round" stroke-linejoin="round"/>
    <path d="M 135 288 Q 133 290 130 292 Q 128 294 130 296 Q 132 298 135 296 Q 138 294 140 292" fill="none" stroke="black" stroke-width="2" stroke-linecap="round" stroke-linejoin="round"/>
    <path d="M 130 292 Q 128 294 126 292" fill="none" stroke="black" stroke-width="1.5" stroke-linecap="round" stroke-linejoin="round"/>
    <path d="M 132 294 Q 130 296 128 294" fill="none" stroke="black" stroke-width="1.5" stroke-linecap="round" stroke-linejoin="round"/>
    <path d="M 135 296 Q 133 298 131 296" fill="none" stroke="black" stroke-width="1.5" stroke-linecap="round" stroke-linejoin="round"/>
    
    <!-- Leg Back Right -->
    <path d="M 160 240 Q 165 250 170 260 Q 172 265 170 270 Q 168 285 165 288" fill="none" stroke="black" stroke-width="2.5" stroke-linecap="round" stroke-linejoin="round"/>
    <path d="M 165 288 Q 167 290 170 292 Q 172 294 170 296 Q 168 298 165 296 Q 162 294 160 292" fill="none" stroke="black" stroke-width="2" stroke-linecap="round" stroke-linejoin="round"/>
    <path d="M 170 292 Q 172 294 174 292" fill="none" stroke="black" stroke-width="1.5" stroke-linecap="round" stroke-linejoin="round"/>
    <path d="M 168 294 Q 170 296 172 294" fill="none" stroke="black" stroke-width="1.5" stroke-linecap="round" stroke-linejoin="round"/>
    <path d="M 165 296 Q 167 298 169 296" fill="none" stroke="black" stroke-width="1.5" stroke-linecap="round" stroke-linejoin="round"/>
    
    <!-- Tail -->
    <path d="M 200 240 Q 210 250 220 260 Q 230 270 235 280 Q 240 290 235 300 Q 230 310 220 305 Q 210 300 205 290 Q 200 280 195 270 Q 190 260 190 250 Q 192 245 195 242 Q 198 240 200 240 Z" fill="none" stroke="black" stroke-width="2.5" stroke-linecap="round" stroke-linejoin="round"/>
  </g>
</svg>
