<svg xmlns="http://www.w3.org/2000/svg" viewBox="0 0 300 300">
  <!-- Coloring Book Style: Fill Areas Layer -->
  <g id="fill-areas">
    <path id="area_head" d="M 150 70 Q 180 60 200 75 Q 210 90 205 110 Q 200 130 180 140 Q 160 145 150 140 Q 140 145 120 140 Q 100 130 95 110 Q 90 90 100 75 Q 120 60 150 70 Z" fill="#FFFFFF"/>
    <path id="area_snout" d="M 150 120 Q 170 125 180 120 Q 185 115 180 110 Q 175 105 170 110 Q 160 115 150 115 Q 140 115 130 110 Q 125 105 120 110 Q 115 115 120 120 Q 130 125 150 120 Z" fill="#FFFFFF"/>
    <path id="area_ear_left" d="M 120 85 L 105 50 L 130 70 Z" fill="#FFFFFF"/>
    <path id="area_ear_left_inner" d="M 120 80 L 112 60 L 125 72 Z" fill="#FFFFFF"/>
    <path id="area_ear_right" d="M 180 85 L 195 50 L 170 70 Z" fill="#FFFFFF"/>
    <path id="area_ear_right_inner" d="M 180 80 L 188 60 L 175 72 Z" fill="#FFFFFF"/>
    <path id="area_eye_left" d="M 130 95 Q 138 90 145 95 Q 138 100 130 95 Z" fill="#FFFFFF"/>
    <path id="area_pupil_left" d="M 137 95 Q 140 93 143 95 Q 140 97 137 95 Z" fill="#FFFFFF"/>
    <path id="area_eye_right" d="M 155 95 Q 163 90 170 95 Q 163 100 155 95 Z" fill="#FFFFFF"/>
    <path id="area_pupil_right" d="M 162 95 Q 165 93 168 95 Q 165 97 162 95 Z" fill="#FFFFFF"/>
    <path id="area_nose" d="M 150 115 Q 160 120 150 125 Q 140 120 150 115 Z" fill="#FFFFFF"/>
    <path id="area_nostril_left" d="M 145 118 Q 147 120 145 122 Q 143 120 145 118 Z" fill="#FFFFFF"/>
    <path id="area_nostril_right" d="M 155 118 Q 157 120 155 122 Q 153 120 155 118 Z" fill="#FFFFFF"/>
    <path id="area_mouth" d="M 150 125 Q 140 135 130 130 Q 125 128 130 125 Q 140 120 150 125 Q 160 120 170 125 Q 175 128 170 130 Q 160 135 150 125 Z" fill="#FFFFFF"/>
    <path id="area_tongue" d="M 150 130 Q 145 140 150 145 Q 155 140 150 130 Z" fill="#FFFFFF"/>
    <path id="area_body" d="M 150 140 Q 140 160 130 190 Q 125 210 130 230 Q 135 250 150 260 Q 165 270 180 265 Q 195 260 200 250 Q 205 240 200 230 Q 195 220 190 210 Q 185 200 180 190 Q 175 180 170 170 Q 165 160 160 155 Q 155 150 150 140 Z" fill="#FFFFFF"/>
    <path id="area_chest" d="M 150 160 Q 145 170 140 180 Q 138 185 140 190 Q 142 195 145 198 Q 148 200 150 198 Q 152 200 155 198 Q 158 195 160 190 Q 162 185 160 180 Q 155 170 150 160 Z" fill="#FFFFFF"/>
    <path id="area_leg_front_left" d="M 130 230 Q 125 240 120 250 Q 118 255 120 260 Q 122 275 125 278 Q 123 280 120 282 Q 118 284 120 286 Q 122 288 125 286 Q 128 284 130 282 Q 128 280 125 278 Q 122 275 120 260 Q 130 230 Z" fill="#FFFFFF"/>
    <path id="area_leg_front_right" d="M 170 230 Q 175 240 180 250 Q 182 255 180 260 Q 178 275 175 278 Q 177 280 180 282 Q 182 284 180 286 Q 178 288 175 286 Q 172 284 170 282 Q 172 280 175 278 Q 178 275 180 260 Q 170 230 Z" fill="#FFFFFF"/>
    <path id="area_leg_back_left" d="M 140 250 Q 135 260 130 270 Q 128 275 130 280 Q 132 295 135 298 Q 133 300 130 302 Q 128 304 130 306 Q 132 308 135 306 Q 138 304 140 302 Q 138 300 135 298 Q 132 295 130 280 Q 140 250 Z" fill="#FFFFFF"/>
    <path id="area_leg_back_right" d="M 160 250 Q 165 260 170 270 Q 172 275 170 280 Q 168 295 165 298 Q 167 300 170 302 Q 172 304 170 306 Q 168 308 165 306 Q 162 304 160 302 Q 162 300 165 298 Q 168 295 170 280 Q 160 250 Z" fill="#FFFFFF"/>
    <path id="area_tail" d="M 200 250 Q 210 260 220 270 Q 230 280 235 290 Q 240 300 235 310 Q 230 320 220 315 Q 210 310 205 300 Q 200 290 195 280 Q 190 270 190 260 Q 192 255 195 252 Q 198 250 200 250 Z" fill="#FFFFFF"/>
  </g>
  
  <!-- Coloring Book Style: Line Art Layer -->
  <g id="line-art">
    <path d="M 150 70 Q 180 60 200 75 Q 210 90 205 110 Q 200 130 180 140 Q 160 145 150 140 Q 140 145 120 140 Q 100 130 95 110 Q 90 90 100 75 Q 120 60 150 70 Z" fill="none" stroke="black" stroke-width="2" stroke-linecap="round" stroke-linejoin="round"/>
    <path d="M 150 120 Q 170 125 180 120 Q 185 115 180 110 Q 175 105 170 110 Q 160 115 150 115 Q 140 115 130 110 Q 125 105 120 110 Q 115 115 120 120 Q 130 125 150 120 Z" fill="none" stroke="black" stroke-width="2" stroke-linecap="round" stroke-linejoin="round"/>
    <path d="M 120 85 L 105 50 L 130 70 Z" fill="none" stroke="black" stroke-width="2" stroke-linecap="round" stroke-linejoin="round"/>
    <path d="M 120 80 L 112 60 L 125 72 Z" fill="none" stroke="black" stroke-width="1.5" stroke-linecap="round" stroke-linejoin="round"/>
    <path d="M 180 85 L 195 50 L 170 70 Z" fill="none" stroke="black" stroke-width="2" stroke-linecap="round" stroke-linejoin="round"/>
    <path d="M 180 80 L 188 60 L 175 72 Z" fill="none" stroke="black" stroke-width="1.5" stroke-linecap="round" stroke-linejoin="round"/>
    <path d="M 130 95 Q 138 90 145 95 Q 138 100 130 95 Z" fill="none" stroke="black" stroke-width="2" stroke-linecap="round" stroke-linejoin="round"/>
    <path d="M 137 95 Q 140 93 143 95 Q 140 97 137 95 Z" fill="none" stroke="black" stroke-width="1.5" stroke-linecap="round" stroke-linejoin="round"/>
    <path d="M 155 95 Q 163 90 170 95 Q 163 100 155 95 Z" fill="none" stroke="black" stroke-width="2" stroke-linecap="round" stroke-linejoin="round"/>
    <path d="M 162 95 Q 165 93 168 95 Q 165 97 162 95 Z" fill="none" stroke="black" stroke-width="1.5" stroke-linecap="round" stroke-linejoin="round"/>
    <path d="M 150 115 Q 160 120 150 125 Q 140 120 150 115 Z" fill="none" stroke="black" stroke-width="2" stroke-linecap="round" stroke-linejoin="round"/>
    <path d="M 145 118 Q 147 120 145 122 Q 143 120 145 118 Z" fill="none" stroke="black" stroke-width="1.5" stroke-linecap="round" stroke-linejoin="round"/>
    <path d="M 155 118 Q 157 120 155 122 Q 153 120 155 118 Z" fill="none" stroke="black" stroke-width="1.5" stroke-linecap="round" stroke-linejoin="round"/>
    <path d="M 150 125 Q 140 135 130 130 Q 125 128 130 125 Q 140 120 150 125 Q 160 120 170 125 Q 175 128 170 130 Q 160 135 150 125 Z" fill="none" stroke="black" stroke-width="2" stroke-linecap="round" stroke-linejoin="round"/>
    <path d="M 150 130 Q 145 140 150 145 Q 155 140 150 130 Z" fill="none" stroke="black" stroke-width="2" stroke-linecap="round" stroke-linejoin="round"/>
    <path d="M 150 140 Q 140 160 130 190 Q 125 210 130 230 Q 135 250 150 260 Q 165 270 180 265 Q 195 260 200 250 Q 205 240 200 230 Q 195 220 190 210 Q 185 200 180 190 Q 175 180 170 170 Q 165 160 160 155 Q 155 150 150 140 Z" fill="none" stroke="black" stroke-width="2.5" stroke-linecap="round" stroke-linejoin="round"/>
    <path d="M 150 160 Q 145 170 140 180 Q 138 185 140 190 Q 142 195 145 198 Q 148 200 150 198 Q 152 200 155 198 Q 158 195 160 190 Q 162 185 160 180 Q 155 170 150 160 Z" fill="none" stroke="black" stroke-width="2" stroke-linecap="round" stroke-linejoin="round"/>
    <path d="M 130 230 Q 125 240 120 250 Q 118 255 120 260 Q 122 275 125 278" fill="none" stroke="black" stroke-width="2.5" stroke-linecap="round" stroke-linejoin="round"/>
    <path d="M 125 278 Q 123 280 120 282 Q 118 284 120 286 Q 122 288 125 286 Q 128 284 130 282" fill="none" stroke="black" stroke-width="2" stroke-linecap="round" stroke-linejoin="round"/>
    <path d="M 170 230 Q 175 240 180 250 Q 182 255 180 260 Q 178 275 175 278" fill="none" stroke="black" stroke-width="2.5" stroke-linecap="round" stroke-linejoin="round"/>
    <path d="M 175 278 Q 177 280 180 282 Q 182 284 180 286 Q 178 288 175 286 Q 172 284 170 282" fill="none" stroke="black" stroke-width="2" stroke-linecap="round" stroke-linejoin="round"/>
    <path d="M 140 250 Q 135 260 130 270 Q 128 275 130 280 Q 132 295 135 298" fill="none" stroke="black" stroke-width="2.5" stroke-linecap="round" stroke-linejoin="round"/>
    <path d="M 135 298 Q 133 300 130 302 Q 128 304 130 306 Q 132 308 135 306 Q 138 304 140 302" fill="none" stroke="black" stroke-width="2" stroke-linecap="round" stroke-linejoin="round"/>
    <path d="M 160 250 Q 165 260 170 270 Q 172 275 170 280 Q 168 295 165 298" fill="none" stroke="black" stroke-width="2.5" stroke-linecap="round" stroke-linejoin="round"/>
    <path d="M 165 298 Q 167 300 170 302 Q 172 304 170 306 Q 168 308 165 306 Q 162 304 160 302" fill="none" stroke="black" stroke-width="2" stroke-linecap="round" stroke-linejoin="round"/>
    <path d="M 200 250 Q 210 260 220 270 Q 230 280 235 290 Q 240 300 235 310 Q 230 320 220 315 Q 210 310 205 300 Q 200 290 195 280 Q 190 270 190 260 Q 192 255 195 252 Q 198 250 200 250 Z" fill="none" stroke="black" stroke-width="2.5" stroke-linecap="round" stroke-linejoin="round"/>
  </g>
</svg>
