<svg xmlns="http://www.w3.org/2000/svg" viewBox="0 0 300 300">
  <!-- Coloring Book Style: Fill Areas Layer -->
  <g id="fill-areas">
    <path id="area_mane_outer" d="M 150 60 Q 200 50 240 70 Q 260 90 250 120 Q 240 150 220 170 Q 200 180 150 175 Q 100 180 80 170 Q 60 150 50 120 Q 40 90 60 70 Q 100 50 150 60 Z" fill="#FFFFFF"/>
    <path id="area_mane_layer_1" d="M 150 70 Q 190 65 220 80 Q 235 95 230 115 Q 225 135 210 145 Q 195 150 150 148 Q 105 150 90 145 Q 75 135 70 115 Q 65 95 80 80 Q 110 65 150 70 Z" fill="#FFFFFF"/>
    <path id="area_mane_layer_2" d="M 150 80 Q 180 78 200 90 Q 210 100 208 115 Q 206 130 195 138 Q 185 142 150 140 Q 115 142 105 138 Q 94 130 92 115 Q 90 100 100 90 Q 120 78 150 80 Z" fill="#FFFFFF"/>
    <path id="area_head" d="M 150 100 Q 180 95 200 110 Q 210 125 205 145 Q 200 165 180 175 Q 160 180 150 175 Q 140 180 120 175 Q 100 165 95 145 Q 90 125 100 110 Q 120 95 150 100 Z" fill="#FFFFFF"/>
    <path id="area_ear_left" d="M 120 110 L 110 85 L 130 100 Z" fill="#FFFFFF"/>
    <path id="area_ear_left_inner" d="M 120 105 L 115 92 L 125 100 Z" fill="#FFFFFF"/>
    <path id="area_ear_right" d="M 180 110 L 190 85 L 170 100 Z" fill="#FFFFFF"/>
    <path id="area_ear_right_inner" d="M 180 105 L 185 92 L 175 100 Z" fill="#FFFFFF"/>
    <path id="area_eye_left" d="M 135 125 Q 145 120 155 125 Q 145 130 135 125 Z" fill="#FFFFFF"/>
    <path id="area_pupil_left" d="M 140 125 Q 145 123 150 125 Q 145 127 140 125 Z" fill="#FFFFFF"/>
    <path id="area_eye_right" d="M 145 125 Q 155 120 165 125 Q 155 130 145 125 Z" fill="#FFFFFF"/>
    <path id="area_pupil_right" d="M 150 125 Q 155 123 160 125 Q 155 127 150 125 Z" fill="#FFFFFF"/>
    <path id="area_nose" d="M 150 140 Q 160 145 150 150 Q 140 145 150 140 Z" fill="#FFFFFF"/>
    <path id="area_nostril_left" d="M 145 143 Q 147 145 145 147 Q 143 145 145 143 Z" fill="#FFFFFF"/>
    <path id="area_nostril_right" d="M 155 143 Q 157 145 155 147 Q 153 145 155 143 Z" fill="#FFFFFF"/>
    <path id="area_mouth" d="M 150 150 Q 140 160 130 155 Q 125 153 130 150 Q 140 145 150 150 Q 160 145 170 150 Q 175 153 170 155 Q 160 160 150 150 Z" fill="#FFFFFF"/>
    <path id="area_body" d="M 150 175 Q 140 195 130 225 Q 125 245 130 265 Q 135 285 150 295 Q 165 305 180 300 Q 195 295 200 285 Q 205 275 200 265 Q 195 255 190 245 Q 185 235 180 225 Q 175 215 170 205 Q 165 195 160 190 Q 155 185 150 175 Z" fill="#FFFFFF"/>
    <path id="area_leg_front_left" d="M 130 265 Q 125 275 120 285 Q 118 290 120 295 Q 122 310 125 313 Q 123 315 120 317 Q 118 319 120 321 Q 122 323 125 321 Q 128 319 130 317 Q 128 315 125 313 Q 122 310 120 295 Q 130 265 Z" fill="#FFFFFF"/>
    <path id="area_leg_front_right" d="M 170 265 Q 175 275 180 285 Q 182 290 180 295 Q 178 310 175 313 Q 177 315 180 317 Q 182 319 180 321 Q 178 323 175 321 Q 172 319 170 317 Q 172 315 175 313 Q 178 310 180 295 Q 170 265 Z" fill="#FFFFFF"/>
    <path id="area_leg_back_left" d="M 140 285 Q 135 295 130 305 Q 128 310 130 315 Q 132 330 135 333 Q 133 335 130 337 Q 128 339 130 341 Q 132 343 135 341 Q 138 339 140 337 Q 138 335 135 333 Q 132 330 130 315 Q 140 285 Z" fill="#FFFFFF"/>
    <path id="area_leg_back_right" d="M 160 285 Q 165 295 170 305 Q 172 310 170 315 Q 168 330 165 333 Q 167 335 170 337 Q 172 339 170 341 Q 168 343 165 341 Q 162 339 160 337 Q 162 335 165 333 Q 168 330 170 315 Q 160 285 Z" fill="#FFFFFF"/>
    <path id="area_tail" d="M 200 285 Q 210 295 220 305 Q 230 315 235 325 Q 240 335 235 345 Q 230 355 220 350 Q 210 345 205 335 Q 200 325 195 315 Q 190 305 190 295 Q 192 290 195 287 Q 198 285 200 285 Z" fill="#FFFFFF"/>
  </g>
  
  <!-- Coloring Book Style: Line Art Layer -->
  <g id="line-art">
    <path d="M 150 60 Q 200 50 240 70 Q 260 90 250 120 Q 240 150 220 170 Q 200 180 150 175 Q 100 180 80 170 Q 60 150 50 120 Q 40 90 60 70 Q 100 50 150 60 Z" fill="none" stroke="black" stroke-width="2" stroke-linecap="round" stroke-linejoin="round"/>
    <path d="M 150 70 Q 190 65 220 80 Q 235 95 230 115 Q 225 135 210 145 Q 195 150 150 148 Q 105 150 90 145 Q 75 135 70 115 Q 65 95 80 80 Q 110 65 150 70 Z" fill="none" stroke="black" stroke-width="2" stroke-linecap="round" stroke-linejoin="round"/>
    <path d="M 150 80 Q 180 78 200 90 Q 210 100 208 115 Q 206 130 195 138 Q 185 142 150 140 Q 115 142 105 138 Q 94 130 92 115 Q 90 100 100 90 Q 120 78 150 80 Z" fill="none" stroke="black" stroke-width="2" stroke-linecap="round" stroke-linejoin="round"/>
    <path d="M 150 100 Q 180 95 200 110 Q 210 125 205 145 Q 200 165 180 175 Q 160 180 150 175 Q 140 180 120 175 Q 100 165 95 145 Q 90 125 100 110 Q 120 95 150 100 Z" fill="none" stroke="black" stroke-width="2" stroke-linecap="round" stroke-linejoin="round"/>
    <path d="M 120 110 L 110 85 L 130 100 Z" fill="none" stroke="black" stroke-width="2" stroke-linecap="round" stroke-linejoin="round"/>
    <path d="M 120 105 L 115 92 L 125 100 Z" fill="none" stroke="black" stroke-width="1.5" stroke-linecap="round" stroke-linejoin="round"/>
    <path d="M 180 110 L 190 85 L 170 100 Z" fill="none" stroke="black" stroke-width="2" stroke-linecap="round" stroke-linejoin="round"/>
    <path d="M 180 105 L 185 92 L 175 100 Z" fill="none" stroke="black" stroke-width="1.5" stroke-linecap="round" stroke-linejoin="round"/>
    <path d="M 135 125 Q 145 120 155 125 Q 145 130 135 125 Z" fill="none" stroke="black" stroke-width="2" stroke-linecap="round" stroke-linejoin="round"/>
    <path d="M 140 125 Q 145 123 150 125 Q 145 127 140 125 Z" fill="none" stroke="black" stroke-width="1.5" stroke-linecap="round" stroke-linejoin="round"/>
    <path d="M 145 125 Q 155 120 165 125 Q 155 130 145 125 Z" fill="none" stroke="black" stroke-width="2" stroke-linecap="round" stroke-linejoin="round"/>
    <path d="M 150 125 Q 155 123 160 125 Q 155 127 150 125 Z" fill="none" stroke="black" stroke-width="1.5" stroke-linecap="round" stroke-linejoin="round"/>
    <path d="M 150 140 Q 160 145 150 150 Q 140 145 150 140 Z" fill="none" stroke="black" stroke-width="2" stroke-linecap="round" stroke-linejoin="round"/>
    <path d="M 145 143 Q 147 145 145 147 Q 143 145 145 143 Z" fill="none" stroke="black" stroke-width="1.5" stroke-linecap="round" stroke-linejoin="round"/>
    <path d="M 155 143 Q 157 145 155 147 Q 153 145 155 143 Z" fill="none" stroke="black" stroke-width="1.5" stroke-linecap="round" stroke-linejoin="round"/>
    <path d="M 150 150 Q 140 160 130 155 Q 125 153 130 150 Q 140 145 150 150 Q 160 145 170 150 Q 175 153 170 155 Q 160 160 150 150 Z" fill="none" stroke="black" stroke-width="2" stroke-linecap="round" stroke-linejoin="round"/>
    <path d="M 150 175 Q 140 195 130 225 Q 125 245 130 265 Q 135 285 150 295 Q 165 305 180 300 Q 195 295 200 285 Q 205 275 200 265 Q 195 255 190 245 Q 185 235 180 225 Q 175 215 170 205 Q 165 195 160 190 Q 155 185 150 175 Z" fill="none" stroke="black" stroke-width="2.5" stroke-linecap="round" stroke-linejoin="round"/>
    <path d="M 130 265 Q 125 275 120 285 Q 118 290 120 295 Q 122 310 125 313" fill="none" stroke="black" stroke-width="2.5" stroke-linecap="round" stroke-linejoin="round"/>
    <path d="M 125 313 Q 123 315 120 317 Q 118 319 120 321 Q 122 323 125 321 Q 128 319 130 317" fill="none" stroke="black" stroke-width="2" stroke-linecap="round" stroke-linejoin="round"/>
    <path d="M 170 265 Q 175 275 180 285 Q 182 290 180 295 Q 178 310 175 313" fill="none" stroke="black" stroke-width="2.5" stroke-linecap="round" stroke-linejoin="round"/>
    <path d="M 175 313 Q 177 315 180 317 Q 182 319 180 321 Q 178 323 175 321 Q 172 319 170 317" fill="none" stroke="black" stroke-width="2" stroke-linecap="round" stroke-linejoin="round"/>
    <path d="M 140 285 Q 135 295 130 305 Q 128 310 130 315 Q 132 330 135 333" fill="none" stroke="black" stroke-width="2.5" stroke-linecap="round" stroke-linejoin="round"/>
    <path d="M 135 333 Q 133 335 130 337 Q 128 339 130 341 Q 132 343 135 341 Q 138 339 140 337" fill="none" stroke="black" stroke-width="2" stroke-linecap="round" stroke-linejoin="round"/>
    <path d="M 160 285 Q 165 295 170 305 Q 172 310 170 315 Q 168 330 165 333" fill="none" stroke="black" stroke-width="2.5" stroke-linecap="round" stroke-linejoin="round"/>
    <path d="M 165 333 Q 167 335 170 337 Q 172 339 170 341 Q 168 343 165 341 Q 162 339 160 337" fill="none" stroke="black" stroke-width="2" stroke-linecap="round" stroke-linejoin="round"/>
    <path d="M 200 285 Q 210 295 220 305 Q 230 315 235 325 Q 240 335 235 345 Q 230 355 220 350 Q 210 345 205 335 Q 200 325 195 315 Q 190 305 190 295 Q 192 290 195 287 Q 198 285 200 285 Z" fill="none" stroke="black" stroke-width="2.5" stroke-linecap="round" stroke-linejoin="round"/>
  </g>
</svg>
