<svg xmlns="http://www.w3.org/2000/svg" viewBox="0 0 400 500">
  <!-- Coloring Book Style: Fill Areas Layer -->
  <g id="fill-areas">
    <!-- Body Segments -->
    <path id="area_body_segment_1" d="M 200 200 Q 195 190 200 180 Q 205 190 200 200 Z" fill="#FFFFFF"/>
    <path id="area_body_segment_2" d="M 200 180 Q 195 170 200 160 Q 205 170 200 180 Z" fill="#FFFFFF"/>
    <path id="area_body_segment_3" d="M 200 200 Q 195 210 200 220 Q 205 210 200 200 Z" fill="#FFFFFF"/>
    <path id="area_body_segment_4" d="M 200 220 Q 195 230 200 240 Q 205 230 200 220 Z" fill="#FFFFFF"/>
    <path id="area_body_segment_5" d="M 200 240 Q 195 250 200 260 Q 205 250 200 240 Z" fill="#FFFFFF"/>
    <path id="area_body_segment_6" d="M 200 260 Q 195 270 200 280 Q 205 270 200 260 Z" fill="#FFFFFF"/>
    <path id="area_body_segment_7" d="M 200 280 Q 195 290 200 300 Q 205 290 200 280 Z" fill="#FFFFFF"/>
    <path id="area_body_segment_8" d="M 200 300 Q 195 310 200 320 Q 205 310 200 300 Z" fill="#FFFFFF"/>
    
    <!-- Head -->
    <path id="area_head" d="M 200 160 Q 195 150 200 140 Q 205 150 200 160 Z" fill="#FFFFFF"/>
    
    <!-- Tail Feather Left 1 -->
    <path id="area_tail_left_1" d="M 200 320 Q 180 330 160 350 Q 150 370 140 380 Q 135 390 130 400 Q 128 405 130 410 Q 132 415 140 420 Q 150 425 160 430 Q 170 435 180 430 Q 190 425 200 420 Q 200 400 200 380 Z" fill="#FFFFFF"/>
    <path id="area_tail_left_1_eye" d="M 160 380 Q 170 375 180 380 Q 170 385 160 380 Z" fill="#FFFFFF"/>
    
    <!-- Tail Feather Left 2 -->
    <path id="area_tail_left_2" d="M 200 340 Q 185 350 170 370 Q 160 390 150 400 Q 145 410 140 420 Q 138 425 140 430 Q 142 435 150 440 Q 160 445 170 450 Q 180 455 190 450 Q 200 445 210 440 Q 210 420 210 400 Z" fill="#FFFFFF"/>
    <path id="area_tail_left_2_eye" d="M 170 400 Q 180 395 190 400 Q 180 405 170 400 Z" fill="#FFFFFF"/>
    
    <!-- Tail Feather Left 3 -->
    <path id="area_tail_left_3" d="M 200 360 Q 190 370 180 390 Q 175 410 170 420 Q 168 430 165 440 Q 163 445 165 450 Q 167 455 175 460 Q 185 465 195 470 Q 205 475 215 470 Q 225 465 230 460 Q 230 440 230 420 Z" fill="#FFFFFF"/>
    <path id="area_tail_left_3_eye" d="M 190 420 Q 200 415 210 420 Q 200 425 190 420 Z" fill="#FFFFFF"/>
    
    <!-- Tail Feather Right 1 -->
    <path id="area_tail_right_1" d="M 200 320 Q 220 330 240 350 Q 250 370 260 380 Q 265 390 270 400 Q 272 405 270 410 Q 268 415 260 420 Q 250 425 240 430 Q 230 435 220 430 Q 210 425 200 420 Q 200 400 200 380 Z" fill="#FFFFFF"/>
    <path id="area_tail_right_1_eye" d="M 240 380 Q 230 375 220 380 Q 230 385 240 380 Z" fill="#FFFFFF"/>
    
    <!-- Tail Feather Right 2 -->
    <path id="area_tail_right_2" d="M 200 340 Q 215 350 230 370 Q 240 390 250 400 Q 255 410 260 420 Q 262 425 260 430 Q 258 435 250 440 Q 240 445 230 450 Q 220 455 210 450 Q 200 445 190 440 Q 190 420 190 400 Z" fill="#FFFFFF"/>
    <path id="area_tail_right_2_eye" d="M 230 400 Q 220 395 210 400 Q 220 405 230 400 Z" fill="#FFFFFF"/>
    
    <!-- Tail Feather Right 3 -->
    <path id="area_tail_right_3" d="M 200 360 Q 210 370 220 390 Q 225 410 230 420 Q 232 430 235 440 Q 237 445 235 450 Q 233 455 225 460 Q 215 465 205 470 Q 195 475 185 470 Q 175 465 170 460 Q 170 440 170 420 Z" fill="#FFFFFF"/>
    <path id="area_tail_right_3_eye" d="M 210 420 Q 200 415 190 420 Q 200 425 210 420 Z" fill="#FFFFFF"/>
    
    <!-- Tail Center -->
    <path id="area_tail_center" d="M 200 320 Q 200 340 200 360 Q 200 380 200 400 Q 200 420 200 440" fill="#FFFFFF"/>
    
    <!-- Wing Left -->
    <path id="area_wing_left" d="M 180 200 Q 150 210 140 240 Q 135 260 145 280 Q 155 300 180 290 Q 200 280 200 260 Z" fill="#FFFFFF"/>
    
    <!-- Wing Right -->
    <path id="area_wing_right" d="M 220 200 Q 250 210 260 240 Q 265 260 255 280 Q 245 300 220 290 Q 200 280 200 260 Z" fill="#FFFFFF"/>
  </g>
  
  <!-- Coloring Book Style: Line Art Layer -->
  <g id="line-art">
    <!-- Body Outline -->
    <path d="M 200 200 Q 190 180 200 160 Q 210 180 200 200 Q 200 220 200 240 Q 200 260 200 280 Q 200 300 200 320" fill="none" stroke="black" stroke-width="3" stroke-linecap="round" stroke-linejoin="round"/>
    <path d="M 180 220 Q 190 210 200 220 Q 210 210 220 220" fill="none" stroke="black" stroke-width="1.5" stroke-linecap="round" stroke-linejoin="round"/>
    <path d="M 175 250 Q 190 240 200 250 Q 210 240 225 250" fill="none" stroke="black" stroke-width="1.5" stroke-linecap="round" stroke-linejoin="round"/>
    <path d="M 170 280 Q 190 270 200 280 Q 210 270 230 280" fill="none" stroke="black" stroke-width="1.5" stroke-linecap="round" stroke-linejoin="round"/>
    
    <!-- Head -->
    <path d="M 200 160 Q 195 150 200 140 Q 205 150 200 160 Z" fill="none" stroke="black" stroke-width="2.5" stroke-linecap="round" stroke-linejoin="round"/>
    <path d="M 200 140 Q 195 135 190 130" fill="none" stroke="black" stroke-width="2" stroke-linecap="round" stroke-linejoin="round"/>
    <path d="M 205 150 Q 207 148 209 150 Q 207 152 205 150 Z" fill="none" stroke="black" stroke-width="1.5" stroke-linecap="round" stroke-linejoin="round"/>
    <path d="M 200 140 Q 195 120 190 110" fill="none" stroke="black" stroke-width="2" stroke-linecap="round" stroke-linejoin="round"/>
    <path d="M 200 140 Q 205 120 210 110" fill="none" stroke="black" stroke-width="2" stroke-linecap="round" stroke-linejoin="round"/>
    <path d="M 200 140 Q 200 115 200 100" fill="none" stroke="black" stroke-width="2" stroke-linecap="round" stroke-linejoin="round"/>
    
    <!-- Legs -->
    <path d="M 190 320 L 190 360 L 185 365" fill="none" stroke="black" stroke-width="2.5" stroke-linecap="round" stroke-linejoin="round"/>
    <path d="M 185 365 Q 180 367 178 365 Q 180 363 185 365" fill="none" stroke="black" stroke-width="2" stroke-linecap="round" stroke-linejoin="round"/>
    <path d="M 210 320 L 210 360 L 215 365" fill="none" stroke="black" stroke-width="2.5" stroke-linecap="round" stroke-linejoin="round"/>
    <path d="M 215 365 Q 220 367 222 365 Q 220 363 215 365" fill="none" stroke="black" stroke-width="2" stroke-linecap="round" stroke-linejoin="round"/>
    
    <!-- Tail Center -->
    <path d="M 200 320 Q 200 340 200 360 Q 200 380 200 400 Q 200 420 200 440" fill="none" stroke="black" stroke-width="2" stroke-linecap="round" stroke-linejoin="round"/>
    <path d="M 200 360 Q 195 370 200 380 Q 205 370 200 360" fill="none" stroke="black" stroke-width="1.5" stroke-linecap="round" stroke-linejoin="round"/>
    <path d="M 200 400 Q 195 410 200 420 Q 205 410 200 400" fill="none" stroke="black" stroke-width="1.5" stroke-linecap="round" stroke-linejoin="round"/>
    
    <!-- Tail Feather Left 1 -->
    <path d="M 200 320 Q 160 340 140 380 Q 130 400 140 420 Q 150 440 180 430 Q 200 420 200 400" fill="none" stroke="black" stroke-width="2" stroke-linecap="round" stroke-linejoin="round"/>
    <path d="M 160 380 Q 170 375 180 380 Q 170 385 160 380 Z" fill="none" stroke="black" stroke-width="1.5" stroke-linecap="round" stroke-linejoin="round"/>
    
    <!-- Tail Feather Left 2 -->
    <path d="M 200 340 Q 170 360 150 400 Q 140 420 150 440 Q 160 460 190 450 Q 210 440 210 420" fill="none" stroke="black" stroke-width="2" stroke-linecap="round" stroke-linejoin="round"/>
    <path d="M 170 400 Q 180 395 190 400 Q 180 405 170 400 Z" fill="none" stroke="black" stroke-width="1.5" stroke-linecap="round" stroke-linejoin="round"/>
    
    <!-- Tail Feather Left 3 -->
    <path d="M 200 360 Q 180 380 170 420 Q 165 440 175 460 Q 185 480 210 470 Q 230 460 230 440" fill="none" stroke="black" stroke-width="2" stroke-linecap="round" stroke-linejoin="round"/>
    <path d="M 190 420 Q 200 415 210 420 Q 200 425 190 420 Z" fill="none" stroke="black" stroke-width="1.5" stroke-linecap="round" stroke-linejoin="round"/>
    
    <!-- Tail Feather Right 1 -->
    <path d="M 200 320 Q 240 340 260 380 Q 270 400 260 420 Q 250 440 220 430 Q 200 420 200 400" fill="none" stroke="black" stroke-width="2" stroke-linecap="round" stroke-linejoin="round"/>
    <path d="M 240 380 Q 230 375 220 380 Q 230 385 240 380 Z" fill="none" stroke="black" stroke-width="1.5" stroke-linecap="round" stroke-linejoin="round"/>
    
    <!-- Tail Feather Right 2 -->
    <path d="M 200 340 Q 230 360 250 400 Q 260 420 250 440 Q 240 460 210 450 Q 190 440 190 420" fill="none" stroke="black" stroke-width="2" stroke-linecap="round" stroke-linejoin="round"/>
    <path d="M 230 400 Q 220 395 210 400 Q 220 405 230 400 Z" fill="none" stroke="black" stroke-width="1.5" stroke-linecap="round" stroke-linejoin="round"/>
    
    <!-- Tail Feather Right 3 -->
    <path d="M 200 360 Q 220 380 230 420 Q 235 440 225 460 Q 215 480 190 470 Q 170 460 170 440" fill="none" stroke="black" stroke-width="2" stroke-linecap="round" stroke-linejoin="round"/>
    <path d="M 210 420 Q 200 415 190 420 Q 200 425 210 420 Z" fill="none" stroke="black" stroke-width="1.5" stroke-linecap="round" stroke-linejoin="round"/>
    
    <!-- Wing Left -->
    <path d="M 180 200 Q 150 210 140 240 Q 135 260 145 280 Q 155 300 180 290 Q 200 280 200 260" fill="none" stroke="black" stroke-width="2" stroke-linecap="round" stroke-linejoin="round"/>
    <path d="M 170 240 Q 165 250 170 260" fill="none" stroke="black" stroke-width="1.5" stroke-linecap="round" stroke-linejoin="round"/>
    
    <!-- Wing Right -->
    <path d="M 220 200 Q 250 210 260 240 Q 265 260 255 280 Q 245 300 220 290 Q 200 280 200 260" fill="none" stroke="black" stroke-width="2" stroke-linecap="round" stroke-linejoin="round"/>
    <path d="M 230 240 Q 235 250 230 260" fill="none" stroke="black" stroke-width="1.5" stroke-linecap="round" stroke-linejoin="round"/>
  </g>
</svg>
